<?xml version="1.0" standalone="no"?>
<!DOCTYPE svg PUBLIC "-//W3C//DTD SVG 1.1//EN" "http://www.w3.org/Graphics/SVG/1.1/DTD/svg11.dtd" >
<svg xmlns="http://www.w3.org/2000/svg">
<metadata></metadata>
<defs>
<font id="caslon_classicoregular" horiz-adv-x="1064" >
<font-face units-per-em="2048" ascent="1638" descent="-410" />
<missing-glyph horiz-adv-x="454" />
<glyph horiz-adv-x="2048" />
<glyph horiz-adv-x="2048" />
<glyph unicode="&#xd;" horiz-adv-x="454" />
<glyph unicode=" "  horiz-adv-x="454" />
<glyph unicode="&#x09;" horiz-adv-x="454" />
<glyph unicode="&#xa0;" horiz-adv-x="454" />
<glyph unicode="!" horiz-adv-x="657" d="M297 92q0 43 31.5 77t74.5 34q45 0 79 -33t34 -78t-31.5 -77.5t-76.5 -32.5t-78 32.5t-33 77.5zM299 1284q0 55 25 100q29 53 77 54q49 0 76 -45q21 -39 21 -90q0 -244 -43 -711q-20 -215 -45 -215q-37 0 -60 215q-51 469 -51 692z" />
<glyph unicode="&#x22;" horiz-adv-x="778" d="M158 1292q0 139 59 140q55 0 86 -58q23 -47 23 -108q0 -51 -37 -201q-43 -160 -70 -170q-61 238 -61 397zM465 1292q0 139 59 140q55 0 86 -58q23 -47 23 -108q0 -51 -37 -201q-43 -160 -70 -170q-61 238 -61 397z" />
<glyph unicode="#" horiz-adv-x="1368" d="M49 418l19 110h276l92 332h-330l17 113h342l129 442h117l-129 -442h358l129 442h117l-129 -442h258l-19 -113h-268l-90 -332h319l-18 -110h-332l-125 -441h-118l127 441h-359l-127 -441h-119l127 441h-264zM461 528h360l90 332h-358z" />
<glyph unicode="$" horiz-adv-x="1114" d="M100 383q0 27 19 27q18 0 31 -25q6 -31 22 -90q72 -197 252 -258v625q-147 74 -207 143q-80 90 -80 233q0 137 77 236.5t210 134.5v197h65v-183q49 4 74 4q47 0 86 -8v187h66v-209q8 -2 123 -78q20 0 54 41t42 41q10 0 12 -43q14 -248 15 -314q0 -47 -23 -47 q-16 0 -25 21q-59 158 -71 182q-47 94 -127 146v-580q158 -78 219 -139q92 -93 92 -236q0 -152 -82 -254t-229 -139v-277h-66l-2 265q-74 -8 -158 -2v-263h-65v277q-109 20 -215 76q-8 -2 -40 -28t-38 -26q-16 0 -16 31q0 55 -7.5 166t-7.5 166zM272 1102q0 -121 152 -205 v461q-152 -74 -152 -256zM487 20q41 -4 64 -4q43 1 98 11l2 534q-27 12 -81 34.5t-81 35.5zM489 862q54 -22 160 -65v579q-39 12 -80 13q-45 0 -80 -9v-518zM715 51q157 78 157 258q0 125 -157 215v-473z" />
<glyph unicode="%" horiz-adv-x="1730" d="M88 965q0 168 138.5 329.5t303.5 161.5q90 0 142 -47q45 -43 90 -88q72 -47 205 -47q94 0 207.5 53t162.5 129q23 -2 64 -12l-1028 -1546l-76 14l893 1341q-127 -35 -215 -34q-137 0 -211 36q-8 -10 -8 -63q0 -145 -119 -324q-131 -197 -275 -196q-123 0 -198.5 84 t-75.5 209zM240 889q0 -168 129 -168q127 0 223 209q82 176 82 323q0 143 -86 144q-166 0 -269 -211q-80 -164 -79 -297zM958 193q0 180 134.5 340.5t310.5 160.5q203 1 203 -241q0 -174 -107 -349q-121 -199 -282 -198q-113 0 -186 86t-73 201zM1098 117q0 -156 129 -156 q139 0 248 182q94 160 94 312q0 182 -142 182q-125 0 -233 -203q-96 -178 -96 -317z" />
<glyph unicode="&#x26;" horiz-adv-x="1568" d="M61 352q0 246 246 422q41 25 115 80q-53 61 -105 121q-57 72 -57 147q0 125 93 218.5t218 93.5q113 0 201 -68q96 -74 96 -184q0 -84 -86 -156q-74 -55 -147 -111q121 -119 405 -469q164 238 164 381q0 84 -82 88q-39 2 -39 17q0 14 47 18q35 4 95 0q76 -2 65 -2 q23 0 80 2q51 2 80 2q74 -2 74 -20q0 -14 -49 -27l-66 -16q-53 -25 -115 -125q-45 -76 -90 -154q-90 -135 -135 -204q27 -45 59 -97q45 -74 91 -147q66 -88 137 -88q76 0 149 73l29 -20q-41 -66 -107 -107q-70 -47 -141 -47q-115 0 -209 99q-41 41 -143 194 q-139 -141 -223 -198q-139 -94 -279 -95q-162 0 -266.5 108.5t-104.5 270.5zM229 473q0 -150 84 -248q88 -104 234 -104q82 0 194 67q105 62 162 136q-86 117 -211 262q-162 193 -225 231q-98 -33 -168 -136t-70 -208zM379 1174q0 -70 76 -134q27 -23 135 -90 q70 25 125 89.5t55 134.5q0 82 -59.5 142t-141.5 60q-78 0 -134 -62.5t-56 -139.5z" />
<glyph unicode="'" horiz-adv-x="464" d="M158 1292q0 139 59 140q55 0 86 -58q23 -47 23 -108q0 -51 -37 -201q-43 -160 -70 -170q-61 238 -61 397z" />
<glyph unicode="(" horiz-adv-x="604" d="M68 528q0 291 116 519q104 201 336 413l25 -24q-190 -188 -271 -412q-74 -203 -73 -487q0 -569 340 -895l-25 -25q-449 393 -448 911z" />
<glyph unicode=")" horiz-adv-x="604" d="M57 1438l23 20q236 -205 342 -409q115 -226 115 -521q0 -272 -121 -503q-104 -201 -324 -408l-26 25q336 328 335 893q0 299 -67 491q-78 221 -277 412z" />
<glyph unicode="*" horiz-adv-x="925" d="M143 956q0 35 105 80q72 27 141 54q-70 27 -139 53q-106 43 -107 76q0 23 15.5 43t36.5 20q27 0 110 -63q53 -41 109 -82q-2 31 -19 110q-12 72 -12 111q0 63 57 63q53 0 52 -63q-10 -74 -25 -223q53 43 108 86q82 63 111 63q18 0 33.5 -18.5t15.5 -36.5q0 -35 -104 -82 q-70 -29 -139 -57q70 -29 139 -56q104 -47 104 -82q0 -20 -14 -37.5t-33 -17.5q-27 0 -110 64q-55 41 -111 81q2 -31 14 -110q10 -70 11 -111q0 -63 -52 -63q-53 0 -51 63q10 76 23 223q-53 -43 -107 -86q-82 -63 -108 -63q-18 0 -36 20.5t-18 40.5z" />
<glyph unicode="+" horiz-adv-x="1183" d="M61 535v112h474v477h110v-477h477v-112h-475v-478h-112v478h-474z" />
<glyph unicode="," horiz-adv-x="516" d="M111 111q0 96 110 96q80 0 131 -76q47 -67 47 -151q0 -119 -78.5 -212.5t-195.5 -125.5l-12 30q182 72 182 224q0 57 -92 105t-92 110z" />
<glyph unicode="-" horiz-adv-x="657" d="M59 352q0 86 21 86h61l404 -2q53 0 53 -14v-82q0 -14 -76 -14h-397q-66 0 -66 26z" />
<glyph unicode="." horiz-adv-x="516" d="M129 92q0 47 35 84t82 37q49 0 82.5 -35t33.5 -84t-34.5 -83t-83.5 -34q-47 0 -81 34t-34 81z" />
<glyph unicode="/" horiz-adv-x="950" d="M20 -279l830 1756l80 -21l-834 -1737z" />
<glyph unicode="0" horiz-adv-x="999" d="M51 430q0 188 134 323.5t321 135.5q193 0 317.5 -136t124.5 -329q0 -188 -132 -319.5t-320 -131.5q-184 0 -314.5 136.5t-130.5 320.5zM201 436q0 -152 67 -272q82 -143 221 -144q143 0 232 142q74 120 74 274q0 156 -64 271q-80 137 -223 137q-145 0 -232 -135 q-76 -119 -75 -273z" />
<glyph unicode="1" horiz-adv-x="999" d="M233 18q0 18 41 19q88 0 124 23.5t36 107.5v534q0 84 -41 111q-31 20 -121 21q-41 0 -39 20q0 18 41 18h478q41 0 39 -20q0 -18 -41 -18q-88 0 -119 -21q-41 -27 -41 -111v-534q0 -84 41 -111q31 -20 121 -20q41 -1 41 -21q-2 -18 -43 -18h-478q-41 0 -39 20z" />
<glyph unicode="2" horiz-adv-x="999" d="M121 16q0 29 145 140q203 154 269 215q145 133 145 225q0 90 -50 143.5t-141 53.5q-63 0 -135 -45q-45 -29 -100 -80q-45 -45 -49 -45q-14 0 -15 16q0 2 7 20q133 227 348 228q113 0 192 -62q86 -68 86 -176q0 -133 -114 -252q-70 -70 -228 -172q-47 -29 -135 -100h322 q72 0 111.5 17.5t78.5 72.5q25 35 35 35q12 0 12 -14q0 -33 -55 -163t-72 -130q-2 0 -13 17t-22 24q-27 16 -106 16h-455q-61 0 -61 16z" />
<glyph unicode="3" horiz-adv-x="999" d="M176 -418q0 61 78 62q35 0 59 -37q39 -59 49 -66q39 -37 111 -37q129 0 211 109q76 98 76 229q0 98 -115 207q-86 86 -201 146q90 78 160 167q94 121 94 201q0 96 -56 163t-150 67q-63 0 -130 -43q-41 -29 -92 -82q-41 -43 -47 -43q-14 0 -14 14q0 8 8 23 q137 227 346 227q111 0 182 -58q78 -63 78 -169q0 -100 -60.5 -202t-148.5 -159q113 -59 187 -158q82 -110 82 -227q0 -207 -128 -330t-337 -123q-82 0 -150 23q-92 33 -92 96z" />
<glyph unicode="4" horiz-adv-x="999" d="M14 29q0 29 228 336q135 180 268 360q137 190 178 188q10 0 12 -6q12 -4 12.5 -119.5t4.5 -570.5q0 -31 -2 -63q4 -35 35 -35h202v-119q6 0 -145 2q-70 0 -80 -10t-10 -86v-264l-146 2q2 111 2 331q0 25 -67 27q63 -2 -94 -2h-314q-84 0 -84 29zM129 123q16 -4 27 -4h362 q53 -1 53 26v578q-20 -12 -442 -600z" />
<glyph unicode="5" horiz-adv-x="999" d="M102 -420q0 63 78 64q35 0 60 -37q39 -57 49 -66q39 -37 110 -37q129 0 211 109q76 100 76 231q0 176 -147 281q-131 92 -316 94l117 653q113 -16 297 -16h78q78 0 131 37v-2q0 -29 -15 -82q-23 -82 -56.5 -103.5t-125.5 -21.5q-45 0 -137 2h-139l-60 -315l144 -25 q150 -27 251 -142.5t101 -266.5q0 -203 -131 -338.5t-334 -135.5q-84 0 -149 23q-92 31 -93 94z" />
<glyph unicode="6" horiz-adv-x="999" d="M82 512q0 328 207 569q188 221 514 334q12 4 18 4l10 -4q-33 -37 -116 -90q-96 -63 -125 -88q-113 -96 -199 -240q-94 -158 -104 -290q86 111 268 110q168 0 269.5 -109.5t101.5 -279.5q0 -174 -131 -308t-303 -134q-205 0 -316 168q-94 143 -94 358zM233 391 q0 -369 263 -368q137 0 209 131q59 104 59 254t-62 243q-72 111 -213 111q-129 0 -198 -127q-57 -102 -58 -244z" />
<glyph unicode="7" horiz-adv-x="999" d="M84 573q0 39 69.5 194t96.5 155q14 0 36.5 -27t41.5 -27h514q53 0 53 -20q0 -18 -391 -1208h-154l438 1097q-33 6 -71 2h-307q-123 0 -172.5 -27.5t-112.5 -129.5q-6 -12 -27 -27q-8 0 -14 18z" />
<glyph unicode="8" horiz-adv-x="999" d="M125 307q0 123 78 223q72 90 190 142q-252 145 -252 350q0 141 111 238q104 94 248 94q133 0 239 -74q121 -82 121 -209q0 -102 -84 -199q-70 -78 -176 -131q277 -143 277 -389q0 -164 -110 -269.5t-273 -105.5q-145 0 -254 91q-115 96 -115 239zM250 297q0 -119 65 -199 q70 -86 187 -86q119 0 190.5 78t71.5 197t-107 227q-94 96 -219 135q-84 -45 -137 -151q-51 -98 -51 -201zM258 1092q0 -203 295 -336q70 35 128 136t58 179q0 102 -68.5 175t-170.5 73q-104 0 -173 -62.5t-69 -164.5z" />
<glyph unicode="9" horiz-adv-x="999" d="M78 446q0 174 130 308.5t304 134.5q205 0 315 -168q95 -144 95 -359q0 -326 -207 -569q-190 -225 -514 -334q-12 -4 -19 -4l-10 4q100 72 242 181q113 100 198 239q94 156 105 289q-84 -111 -268 -111q-168 0 -271 113q-100 106 -100 276zM240 467q0 -150 61 -244 q72 -111 213 -110q131 0 201 127q55 100 55 243q0 369 -262 369q-137 0 -209 -131q-59 -104 -59 -254z" />
<glyph unicode=":" horiz-adv-x="571" d="M229 90q0 49 32 86t81 37q51 0 85 -35t34 -86q0 -47 -36 -81t-83 -34q-45 0 -79 34t-34 79zM229 719q0 49 32 86t81 37q51 0 85 -35t34 -86q0 -47 -36 -81t-83 -34q-45 0 -79 34t-34 79z" />
<glyph unicode=";" horiz-adv-x="571" d="M188 111q0 96 111 96q80 0 131 -76q47 -67 47 -151q0 -119 -79 -212.5t-195 -125.5l-13 30q182 72 183 224q0 57 -92.5 105t-92.5 110zM213 723q0 49 33 84t82 35q118 0 118 -119q0 -47 -34.5 -82t-81.5 -35q-45 0 -81 36t-36 81z" />
<glyph unicode="&#x3c;" horiz-adv-x="1196" d="M61 537v106l1057 475v-125l-907 -407l907 -398v-118z" />
<glyph unicode="=" horiz-adv-x="1124" d="M61 356v105h990v-105h-990zM61 715v106h990v-106h-990z" />
<glyph unicode="&#x3e;" horiz-adv-x="1220" d="M82 70v118l909 396l-909 409v125l1059 -477v-106z" />
<glyph unicode="?" horiz-adv-x="829" d="M268 88q0 45 32 78t77 33q110 0 110 -111q0 -45 -32.5 -79t-77.5 -34q-43 0 -76 35t-33 78zM289 1350q0 37 27.5 61.5t64.5 24.5q135 0 250 -140q106 -131 106 -270q0 -287 -217 -309q-45 -4 -88 -8q-45 -12 -47 -66q-2 -84 -4 -254q0 -18 -29 -12q-20 0 -20 10l-19 453 q197 16 238 30q133 41 133 168q0 113 -102 166q-23 12 -191 62q-102 29 -102 84z" />
<glyph unicode="@" horiz-adv-x="1941" d="M121 489q0 397 280.5 673t677.5 276q324 0 527 -181q211 -186 211 -505q0 -240 -136 -445q-152 -229 -381 -229q-176 0 -176 176q0 29 4 68l-2 4q-170 -250 -364 -250q-102 0 -157.5 73.5t-55.5 178.5q2 225 143 430q158 227 373 227q162 0 199 -166l4 4l24 92l148 3 l-156 -556q-16 -59 -16 -106q0 -37 16 -74q23 -47 59 -47q111 0 228 139q92 111 141 239t49 255q0 276 -196 451q-188 168 -469 167q-381 0 -629 -274q-242 -266 -242 -651q0 -346 230 -559q223 -207 571 -207q449 0 711 381l41 -19q-121 -199 -324 -309t-436 -110 q-383 0 -637 231q-260 240 -260 620zM700 334q0 -162 134 -162q158 0 280 221q109 195 109 369q0 70 -39 124t-107 54q-141 0 -266 -238q-111 -211 -111 -368z" />
<glyph unicode="A" horiz-adv-x="1349" d="M-37 16q0 18 41 19q82 0 141 110q12 20 74 183l367 960l-11 29q70 43 148 110l412 -1099q57 -156 73 -183q58 -110 142 -110h2q41 -1 41 -21q-2 -18 -43 -18h-504q-31 0 -31 12q0 20 47 27q70 10 88 16q47 20 47 74q0 27 -14 65l-129 355h-500l-133 -355q-14 -39 -14 -65 q0 -53 47 -74q18 -6 88 -16q49 -6 49 -27q0 -12 -31 -12h-358q-41 0 -39 20zM379 616h448l-221 609z" />
<glyph unicode="B" horiz-adv-x="1347" d="M80 18q0 18 41 19q88 0 119 20q41 29 41 111v1087q0 84 -41 111q-33 20 -121 20q-41 0 -39 21q0 18 39 18q98 0 292.5 -3t290.5 -3q178 0 306 -73q153 -89 153 -254q0 -168 -114 -248q-80 -53 -271 -90l-2 -6q16 0 49 -7q162 -14 281 -100q139 -100 139 -252 q0 -238 -174 -328q-125 -63 -379 -63q-41 0 -116.5 2t-110.5 2q-57 0 -171 -2t-173 -2q-41 0 -39 20zM479 281q0 -201 74 -232q33 -14 106 -14q365 0 365 342q0 199 -150 276q-109 57 -327 58q-68 0 -68 -127v-303zM479 1243l2 -409q0 -82 99 -82q156 0 258 79 q110 86 110 238q0 162 -119 242q-101 67 -267 67h-5q-55 0 -70 -43q-8 -20 -8 -92z" />
<glyph unicode="C" horiz-adv-x="1404" d="M70 709q0 328 200.5 531.5t526.5 203.5q186 0 338 -76q20 -12 43.5 -27.5t42.5 -15.5q27 0 64.5 38t47.5 38q8 0 10 -45q14 -262 15 -314q0 -45 -21 -45q-14 0 -49 64q-18 39 -39 80q-68 113 -180 184q-121 76 -246 76q-238 0 -397 -225q-143 -203 -143 -451 q0 -268 133 -463q152 -225 407 -225q131 0 252 70.5t185 185.5q16 35 32 72q29 55 45 55q21 0 21 -47q0 -51 -15 -314q-2 -45 -12 -45q-8 0 -46 38t-64 38q-18 0 -45 -18q-39 -27 -41 -27q-147 -74 -338 -74q-307 0 -517 215t-210 523z" />
<glyph unicode="D" horiz-adv-x="1632" d="M78 18q0 18 43 19q88 0 124 23.5t36 107.5v1087q0 84 -39 111q-33 20 -121 20q-43 0 -41 21q0 18 39 18h301q201 -2 301 -2q358 0 586 -178q247 -197 247 -545q0 -330 -208 -514q-193 -172 -529 -186h4q0 2 -430 2q-45 0 -135 -2t-137 -2q-41 0 -41 20zM481 231 q0 -196 187 -196h2q315 0 491 164t176 475q0 301 -184 504q-189 206 -484 206h-3q-98 0 -134 -20q-51 -29 -51 -117v-1016z" />
<glyph unicode="E" horiz-adv-x="1404" d="M43 18q0 18 43 19q88 0 119 20q41 29 41 111v1087q0 84 -41 111q-31 20 -119 20q-43 0 -43 21q0 18 41 18q45 0 135 -2t133 -2q125 0 373 2t371 2q29 0 44 -12t42.5 -131t27.5 -154q0 -29 -18 -28q-14 0 -51 67q-47 90 -86 133q-66 74 -152 86q-9 1 -72.5 1t-181.5 -1 q-127 -2 -143 -6q-59 -20 -60 -114v-502q12 0 37 -8t39 -8h92q162 0 209 38.5t76 194.5q6 29 16 29q23 0 23 -84v-414q0 -84 -20 -84q-12 0 -19 29q-23 129 -60.5 176t-115.5 55q-18 2 -201 2q-14 0 -38.5 -8t-37.5 -8v-506q0 -78 48 -105q35 -18 116 -18l279 2 q174 2 260 90q57 57 137 244q12 29 21 29q10 0 10 -23v-5q1 -44 -27 -196q-30 -162 -44.5 -174t-119.5 -14q-37 -1 -84.5 -1t-105.5 1l-118 2h5l-737 -2q-43 0 -43 20z" />
<glyph unicode="F" horiz-adv-x="1292" d="M43 18q0 18 43 19q88 0 119 20q41 29 41 111v1087q0 84 -41 111q-31 20 -119 20q-43 0 -43 21q0 18 41 18q45 0 135 -2t137 -2q125 0 375 2t377 2q18 0 32.5 -11t43.5 -134q26 -115 26 -150q0 -31 -18 -30q-16 0 -55 74q-47 94 -95 139q-77 73 -191 73h-3h-227 q-102 0 -127 -10q-47 -23 -48 -110v-502q12 0 37 -8t39 -8h92q162 0 209 38.5t76 194.5q6 29 16 29q23 0 23 -84v-412q0 -86 -20 -86q-12 0 -19 29q-23 129 -60.5 176t-115.5 55q-18 2 -201 2q-14 0 -38.5 -8t-37.5 -8v-506q0 -78 46 -109q34 -22 107 -22h7q43 0 43 -21 q0 -18 -43 -18h-520q-43 0 -43 20z" />
<glyph unicode="G" horiz-adv-x="1519" d="M78 698q0 315 202.5 530.5t516.5 215.5q184 0 344 -76q4 -2 39 -27q25 -16 41 -16q27 0 65.5 38t44.5 38q10 0 12 -45q8 -104 17 -314q0 -45 -23 -45q-14 0 -45 62q-20 39 -41 80q-162 262 -428 262q-252 0 -403 -230q-131 -199 -131 -464q0 -270 114 -461 q137 -227 390 -228q168 0 245 64q84 72 84 235v175q0 126 -158 126h-3q-41 0 -39 21q0 18 41 18h522q41 0 41 -18q-2 -20 -43 -21q-86 0 -118 -29.5t-32 -113.5l-2 -340q-270 -158 -532 -158q-330 0 -525.5 196t-195.5 525z" />
<glyph unicode="H" horiz-adv-x="1632" d="M27 18q0 18 41 19q88 0 123.5 23.5t35.5 107.5v1087q0 84 -41 111q-31 20 -120 20q-41 0 -39 21q0 18 41 18h522q41 0 39 -20q0 -18 -41 -19q-88 0 -119 -20q-41 -27 -41 -111v-510h772v510q0 84 -41 111q-31 20 -121 20q-41 0 -39 21q0 18 41 18h523q41 0 39 -20 q0 -18 -41 -19q-88 0 -119 -20q-41 -27 -41 -111v-1087q0 -84 41 -111q31 -20 121 -20q41 -1 41 -21q-2 -18 -43 -18h-523q-41 0 -39 20q0 18 41 19q88 0 124 23.5t36 107.5v518l-557 2q-143 0 -215 -2v-518q0 -84 41 -111q31 -20 121 -20q41 0 39 -21q0 -18 -41 -18h-522 q-41 0 -39 20z" />
<glyph unicode="I" horiz-adv-x="780" d="M88 18q0 18 41 19q88 0 124 23.5t36 107.5v1087q0 84 -41 111q-31 20 -121 20q-41 0 -39 21q0 18 41 18h522q41 0 39 -20q0 -18 -41 -19q-88 0 -119 -20q-41 -27 -41 -111v-1087q0 -84 41 -111q31 -20 121 -20q41 -1 41 -21q-2 -18 -43 -18h-522q-41 0 -39 20z" />
<glyph unicode="J" horiz-adv-x="835" d="M-23 -287q0 49 36 82t85 33q66 0 97 -41q8 -14 28 -80q14 -41 41 -41q49 0 78 72q23 57 23 117l-3 1400q0 84 -40 111q-31 20 -121 20q-41 0 -41 21q0 18 43 18h520q43 0 43 -18q-2 -20 -43 -21q-88 0 -119 -20q-41 -27 -41 -111v-1087q0 -229 -100 -389 q-117 -188 -334 -189q-61 0 -102 31q-49 33 -50 92z" />
<glyph unicode="K" horiz-adv-x="1437" d="M86 1407q0 18 43 18h520q43 0 41 -20q0 -18 -41 -19q-88 0 -119 -20q-41 -27 -41 -111v-581q127 135 392 393q182 168 182 233q0 55 -47 74q-20 8 -84 12q-47 2 -47 21q0 18 43 18h438q43 0 43 -20q0 -12 -43 -21q-84 -6 -149 -51q-33 -25 -117 -108l-393 -396l325 -374 q100 -117 199 -232q158 -172 219 -182q35 -7 35 -27q0 -14 -49 -14q-45 0 -138 2h-139l-596 686l-74 -72v-448q0 -84 41 -111q31 -20 121 -20q41 0 41 -21q0 -18 -43 -18h-520q-43 0 -41 20q0 18 41 19q88 0 124 23.5t36 107.5v1087q0 84 -41 111q-31 20 -121 20 q-41 0 -41 21z" />
<glyph unicode="L" horiz-adv-x="1349" d="M43 18q0 18 43 19q88 0 119 20q41 29 41 111v1087q0 84 -41 111q-31 20 -119 20q-43 0 -43 21q0 18 43 18h520q43 0 43 -20q0 -18 -43 -19q-88 0 -119 -20q-41 -27 -41 -111v-1087q0 -78 48 -105q35 -18 116 -18l279 2q174 2 260 90q57 57 137 244q12 29 21 29 q10 0 10 -23v-6q0 -44 -27 -193q-31 -166 -46 -177t-46 -11l-1112 -2q-43 0 -43 20z" />
<glyph unicode="M" horiz-adv-x="1916" d="M39 20q0 18 43 19q88 0 119 20q41 29 41 111v922q0 131 -9 204q-6 51 -63 70q-23 8 -102 16q-29 0 -29 15q0 24 27 24h2h387l510 -1149l493 1149h365q29 0 28 -26q0 -12 -28 -13q-80 -8 -103 -16q-57 -18 -61 -72q-4 -33 -4 -211l-2 -890q0 -98 29.5 -127t129.5 -29 q43 -1 43 -21q0 -18 -43 -18h-520q-43 0 -43 20q0 18 43 19q88 0 119 20q41 29 41 111v1092q0 35 -6 34q-6 0 -37 -71l-500 -1157q-16 -39 -26 -39q-6 0 -35 63l-533 1161q-6 16 -14 19q-14 -16 -14 -115v-985q0 -82 41 -111q31 -20 118 -20q43 0 43 -21q0 -18 -43 -18h-364 q-43 0 -43 20z" />
<glyph unicode="N" horiz-adv-x="1632" d="M31 1397q0 24 26 24h2h310l956 -1089v919q0 84 -41 111q-31 20 -119 20q-43 0 -43 21q0 18 43 18h365q43 0 43 -18q0 -20 -43 -21q-88 0 -119 -20q-41 -27 -41 -111v-1233q0 -35 -8 -38q-25 16 -113 120q-57 70 -114 138l-564 641q-68 80 -135 161q-84 100 -143 150 q-6 -4 -6 -33l2 -987q0 -84 39 -111q31 -20 118 -20q43 0 43 -21q0 -18 -43 -18h-364q-43 0 -43 20q0 18 45 19q88 0 119 20q39 27 39 111v946q0 133 -33 174q-47 59 -62 70q-25 16 -88 22q-29 0 -28 15z" />
<glyph unicode="O" horiz-adv-x="1462" d="M35 686q0 307 192 522q199 223 504 224q303 0 504 -215q195 -212 195 -519t-198 -517t-505 -210q-299 0 -495.5 207t-196.5 508zM244 709q0 -276 102 -461q127 -233 379 -234q244 0 381 226q115 188 115 448q0 262 -109 459q-133 244 -375 244q-252 0 -385 -226 q-109 -186 -108 -456z" />
<glyph unicode="P" horiz-adv-x="1234" d="M33 18q0 18 43 19q88 0 124 23.5t36 107.5v1087q0 84 -39 111q-33 20 -121 20q-43 0 -41 21q0 18 39 18q96 0 286.5 -4t284.5 -4q543 0 543 -395q0 -193 -166 -301q-141 -92 -344 -92q-31 0 -92 2h-92q-45 0 -56 -25q-4 -10 -4 -67l2 -371q0 -84 39 -111q31 -20 121 -20 q43 0 41 -21q0 -18 -41 -18h-522q-41 0 -41 20zM436 737q0 -45 12.5 -57t59.5 -12h2q457 0 457 366q0 344 -344 344q-113 0 -131 -6q-55 -16 -56 -98v-537z" />
<glyph unicode="Q" horiz-adv-x="1462" d="M35 686q0 307 192 522q199 223 504 224q303 0 504 -215q195 -212 195 -519q0 -205 -101 -383q-104 -186 -282 -274q-43 -20 -216 -64q-33 -14 -94 -38q-43 -16 -221 -76q59 -8 287 -68q186 -49 274 -49q197 0 240 174q4 14 20 31q25 0 25 -35q0 -27 -19 -86 q-37 -121 -131 -197.5t-217 -76.5q-96 0 -291.5 122.5t-259.5 122.5q-84 0 -84 -90l22 -27q21 -26 21 -67q0 -27 -23.5 -46.5t-51.5 -19.5h-3q-71 0 -71 93q0 90 158 192q117 70 235 139q-270 27 -444 236q-168 201 -168 475zM244 709q0 -276 102 -461q127 -233 379 -234 q244 0 381 226q115 188 115 448q0 262 -109 459q-133 244 -375 244q-252 0 -385 -226q-109 -186 -108 -456z" />
<glyph unicode="R" horiz-adv-x="1462" d="M76 18q0 18 43 19q88 0 124 23.5t36 107.5v1087q0 84 -39 111q-33 20 -121 20q-43 0 -41 21q0 18 43 18q31 0 98.5 -2t104.5 -2t137 4q88 2 139 2q281 0 414 -55q203 -86 203 -325q0 -258 -293 -342q-18 -6 -37 -15l12 -14q61 -72 168 -213q88 -119 178 -238 q139 -176 203 -184q37 -7 37 -25q0 -16 -49 -16q-45 0 -138 2h-139l-418 551q-84 109 -237 109q-25 0 -25 -82v-412q0 -84 41 -111q31 -20 119 -20q43 0 41 -21q0 -18 -41 -18h-522q-41 0 -41 20zM479 760q0 -59 17 -60q238 0 348 58q155 80 155 295q0 338 -374 338 q-76 0 -107 -19q-39 -25 -39 -100v-512z" />
<glyph unicode="S" d="M76 383q0 27 18 25q16 0 31 -23q8 -37 33 -113q51 -117 147 -186.5t219 -69.5q141 0 232.5 78t91.5 217q0 137 -191 234q-176 84 -354 168q-190 123 -190 325q0 180 125 287q119 102 301 102q72 0 141 -28q47 -18 94 -51l39 -29q20 0 54 41t42 41q10 0 13 -47 q14 -248 14 -312q0 -45 -23 -45q-18 0 -22 21q-10 33 -35 100q-109 270 -311 271q-131 0 -214 -79t-83 -210t194 -226q182 -84 365 -169q194 -121 194 -314q0 -199 -139 -309q-127 -102 -330 -102q-156 0 -348 94q-6 -4 -39.5 -29t-38.5 -25q-16 0 -16 31q0 55 -7 166 t-7 166z" />
<glyph unicode="T" horiz-adv-x="1462" d="M4 1098q37 152 82 336q4 20 16 20h-1q0 -1 79 -18q49 -10 129 -13q184 -4 424 -4q326 0 418 2q59 2 134 17.5t73 15.5q12 0 16 -18q47 -191 82 -336q0 -16 -16 -17q-16 0 -56 76q-49 94 -96 139q-80 76 -192 76q-72 0 -152 -14q-115 -18 -115 -55v-1137q0 -84 41 -111 q31 -20 121 -20q41 0 41 -21q0 -18 -43 -18h-520q-43 0 -41 20q0 18 41 19q88 0 124 23.5t36 107.5v1137q0 37 -113 57q-76 12 -151 12q-113 0 -193 -76q-47 -45 -96 -139q-39 -76 -56 -76q-16 0 -16 15z" />
<glyph unicode="U" horiz-adv-x="1519" d="M23 1407q0 18 40 18h523q41 0 41 -20q0 -18 -43 -19q-88 0 -119 -20q-41 -27 -41 -111v-874q0 -174 119 -270q111 -88 288 -88q422 0 422 446v786q0 84 -39 111q-33 20 -120 20q-43 0 -41 21q0 18 41 18h366q41 0 41 -18q0 -20 -43 -21q-88 0 -119 -20q-41 -27 -41 -111 v-782q0 -498 -520 -498q-557 0 -557 469l2 811q0 84 -39 111q-33 20 -121 20q-43 0 -40 21z" />
<glyph unicode="V" horiz-adv-x="1347" d="M-16 1407q0 18 43 18h520q29 0 28 -12q0 -20 -47 -27q-70 -10 -88 -16q-47 -20 -47 -74q0 -27 15 -65l346 -948l358 948q14 39 14 65q0 53 -47 74q-18 6 -88 16q-47 6 -47 27q0 12 29 12h356q43 0 43 -18q0 -20 -43 -21q-82 0 -141 -110q-12 -20 -74 -182l-428 -1125h-24 l-418 1125q-57 154 -74 182q-58 110 -142 110h-1q-43 0 -43 21z" />
<glyph unicode="W" horiz-adv-x="1916" d="M-63 1407q0 18 40 18h521q29 0 28 -12q0 -20 -47 -27q-70 -10 -88 -16q-47 -20 -47 -74q0 -25 14 -65l326 -928l264 791q-47 141 -69 184q-58 108 -144 108h-2q-41 0 -39 21q0 18 41 18h520q29 0 29 -12q0 -20 -47 -27q-70 -10 -88 -16q-47 -20 -47 -74q0 -25 14 -65 l326 -928l317 928q12 37 13 63q0 55 -48 76q-18 6 -86 16q-47 6 -47 27q0 12 29 12h358q41 0 41 -18q-2 -20 -43 -21q-86 0 -145 -108q-23 -41 -70 -184l-377 -1125h-24l-383 1049l-350 -1049h-25l-409 1125q-55 154 -72 182q-58 110 -144 110h-2q-41 0 -38 21z" />
<glyph unicode="X" horiz-adv-x="1517" d="M-10 20q0 18 43 19q94 0 205 106q49 51 153 187l264 346l-297 416q-113 158 -129 176q-88 100 -178 116q-43 8 -43 21q0 18 43 18h565q29 0 29 -12q0 -16 -45 -27q-63 -16 -82 -26q-45 -25 -45 -72q0 -31 21 -57l292 -395l310 395q27 35 26 63q0 47 -55 68 q-23 10 -104 24q-55 8 -56 27q0 12 29 12h479q43 0 43 -20q0 -18 -43 -19q-94 0 -203 -106q-49 -49 -155 -186l-240 -312l320 -448q115 -162 129 -178q88 -100 178 -117q43 -9 43 -23q0 -16 -43 -16h-576q-29 0 -28 12q0 16 45 27q63 16 82 27q45 25 45 71q0 29 -21 58 l-309 432l-330 -432q-27 -35 -26 -62q0 -47 55 -70q23 -8 104 -22q55 -10 56 -29q0 -12 -29 -12h-479q-43 0 -43 20z" />
<glyph unicode="Y" horiz-adv-x="1347" d="M8 1407q0 18 43 18h565q29 0 29 -10q0 -16 -49 -29q-68 -16 -88 -28q-49 -27 -49 -80q0 -33 127 -246q80 -133 159 -266l246 465q18 35 21 59q0 51 -54 74q-23 8 -100 22q-53 8 -53 27q0 12 29 12h479q43 0 43 -18q0 -20 -43 -21q-119 0 -209 -94q-53 -57 -131 -198 l-203 -371v-555q0 -82 41 -111q31 -20 119 -20q43 0 43 -21q0 -18 -43 -18h-520q-43 0 -43 20q0 18 43 19q88 0 118 20q41 29 41 111v516l-252 410q-53 88 -106 178q-72 98 -160 114q-43 8 -43 21z" />
<glyph unicode="Z" horiz-adv-x="1234" d="M8 6l934 1378q-129 2 -387 2q-197 0 -261.5 -38.5t-154.5 -212.5q-18 -35 -35 -35q-16 0 -16 28q0 35 26.5 154t41 131t45.5 12q84 0 248.5 -3t246.5 -3t244 3t242 3q6 0 14 -4q-6 -20 -211 -325l-713 -1051h514q172 0 261 90q57 57 137 246q12 29 20 29q10 0 10 -23v-6 q0 -47 -28 -197q-30 -162 -44 -173t-44 -11l-1049 -2q-37 0 -41 8z" />
<glyph unicode="[" horiz-adv-x="528" d="M119 -301v1765h342v-51l-146 -2q-61 0 -61 -49v-1561q0 -49 61 -49l146 -2v-51h-342z" />
<glyph unicode="\" horiz-adv-x="1177" d="M117 1456l84 12l860 -1638l-84 -18z" />
<glyph unicode="]" horiz-adv-x="528" d="M68 -250l145 2q61 0 61 49v1561q0 49 -61 49l-145 2v51h342v-1765h-342v51z" />
<glyph unicode="^" horiz-adv-x="997" d="M70 788l395 656h74l389 -653l-66 -13l-366 498l-342 -492z" />
<glyph unicode="_" horiz-adv-x="999" d="M-12 -156h1024v-96h-1024v96z" />
<glyph unicode="`" horiz-adv-x="430" d="M-25 1333q2 82 66 82q41 0 76 -57q25 -45 47 -92q74 -142 162 -285h-37q-315 262 -314 352z" />
<glyph unicode="a" horiz-adv-x="892" d="M78 156q0 137 180 235q43 23 299 119q8 39 8 119q0 98 -24 141q-33 61 -123 61q-39 0 -92.5 -33.5t-75.5 -68.5q-10 -16 -10 -76q0 -69 -76 -69h-2q-78 0 -78 65q0 57 72 111q158 119 360 119q188 0 189 -209q0 -420 2 -486q4 -106 55 -106q25 0 52.5 34.5t43.5 34.5 q8 1 8 -22q0 -16 -6 -31q-49 -110 -153 -110h-2q-59 0 -100.5 45t-45.5 106q-41 -63 -126 -112.5t-159 -49.5q-76 0 -136 53.5t-60 129.5zM219 223q0 -53 35 -96t86 -43q84 0 152.5 64.5t68.5 148.5v174q-182 -68 -211 -84q-131 -72 -131 -164z" />
<glyph unicode="b" d="M53 1360q6 6 8 2q63 23 129 47q104 37 119 37q6 0 10 -4q4 -55 5 -78v-584q152 94 284 94q186 0 295 -124q103 -120 103 -308q0 -193 -127 -329t-318 -136q-66 0 -167 29t-128 29q-25 0 -46 -32t-30 -34q-10 4 -10 199v989q0 94 -12 123q-18 43 -96 68q-8 2 -19 12z M324 242q0 -227 233 -228q139 0 219 129q66 106 66 256q0 156 -66 275q-82 143 -225 143q-145 0 -227 -104v-471z" />
<glyph unicode="c" horiz-adv-x="835" d="M51 430q0 186 123 317.5t307 131.5q96 0 189 -45q112 -55 112 -140q0 -76 -65 -76q-49 0 -77 55.5t-52 110.5q-41 57 -125 58q-127 0 -201 -127q-63 -109 -63 -244q0 -160 80 -276q92 -131 245 -132q70 0 135 41q47 27 93 74q37 41 36 41q11 -2 11 -4v-6 q-35 -109 -130.5 -172.5t-211.5 -63.5q-188 0 -301 138q-104 127 -105 319z" />
<glyph unicode="d" d="M61 393q0 213 124 350.5t335 137.5q92 0 225 -50v343q0 86 -14 114q-20 37 -94 60q-8 2 -19 12q6 6 9 2q63 23 129 47q104 37 118 37q6 0 11 -4q4 -16 4 -78v-1196q0 -63 2 -74q10 -35 51 -39q23 0 45 -2q33 -4 33 -20q0 -8 -43 -21q-199 -55 -203 -55q-27 0 -35 61 q-4 41 -6 82h-2q-125 -131 -274 -131q-190 0 -295 119q-100 113 -101 305zM279 174q86 -137 231 -137q135 0 231 131q4 275 4 412q0 264 -241 264q-154 0 -234 -127q-65 -104 -65 -266q0 -161 74 -277z" />
<glyph unicode="e" horiz-adv-x="894" d="M55 424q0 186 115 315q121 137 305 138q111 0 206 -57.5t138 -155.5q25 -57 25 -86q0 -16 -148 -17l-497 -2q-4 -70 -4 -106q0 -152 98 -262.5t248 -110.5q131 0 221 82q39 43 80 86l6 -8v-9q-25 -109 -139.5 -187.5t-231.5 -78.5q-195 0 -311 133q-111 127 -111 326z M211 610l367 23q73 4 73 20q0 84 -55 134.5t-141 50.5q-188 0 -244 -228z" />
<glyph unicode="f" horiz-adv-x="608" d="M72 803q0 55 69.5 63t69.5 49q0 205 98 361q113 182 307 182q59 0 107 -31q55 -37 55 -94q0 -33 -23.5 -59.5t-54.5 -26.5q-35 0 -85 65.5t-111 65.5q-147 0 -150 -245l-2 -265h-1l79 2q33 2 58.5 2t43.5 -2q51 -4 52 -18q0 -16 -19.5 -41t-36.5 -25h-174v-618 q0 -70 8 -90q14 -41 72 -41q41 0 39 -21q0 -18 -41 -18h-301q-41 0 -39 20q0 18 41 19q55 0 70 41q8 18 8 90v618l-137 7q-2 4 -2 10z" />
<glyph unicode="g" horiz-adv-x="950" d="M84 -170q35 45 119 92q-47 23 -83 73t-36 99q0 72 53 123q29 29 113 72q-74 16 -117 106q-37 76 -37 162q0 125 101.5 221t228.5 96q168 0 268 -92q143 66 172 66q80 0 80 -82q0 -55 -59 -55q-29 0 -58.5 22.5t-48.5 22.5q-23 0 -45 -19q41 -72 41 -162q0 -317 -399 -323 q-20 0 -59 2t-58 2q-76 -39 -76 -106q0 -109 230 -109h57q37 2 47 2q401 0 402 -260q0 -156 -170 -234q-127 -59 -306 -59q-407 0 -407 200q0 85 47 140zM117 -270q0 -184 377 -185q129 0 217 33q125 49 125 158q0 113 -117 151q-70 25 -209 25q-111 0 -129 -2 q-90 -10 -166 -51q-98 -53 -98 -129zM430 291q100 0 154 86q47 74 47 180t-43 184q-53 94 -154 95q-194 0 -194 -274q0 -271 190 -271z" />
<glyph unicode="h" d="M53 1360q6 6 8 2q238 84 248 84q6 0 10 -4q0 -14 -2 -29q6 -43 7 -49l-2 -664q131 180 313 181q256 0 256 -316v-397q0 -70 8 -90q14 -41 72 -41q41 -1 41 -21q-2 -18 -43 -18h-301q-41 0 -39 20q0 18 41 19q55 0 69 41q8 18 9 90v397q0 223 -193 223q-61 0 -146 -68.5 t-85 -127.5v-424q0 -70 8 -90q14 -41 71 -41q41 0 39 -21q0 -18 -41 -18h-301q-41 0 -39 20q0 18 41 19q55 0 70 41q8 18 8 90v999q0 88 -14 117q-20 41 -94 64q-8 2 -19 12z" />
<glyph unicode="i" horiz-adv-x="495" d="M63 780q8 8 128 67.5t131 61.5l6 -4q4 -12 4 -78v-694q0 -96 78 -96q43 -1 43 -21q0 -18 -43 -18h-299q-43 0 -43 20q0 18 41 19q80 0 79 108v486q0 78 -15 97.5t-93 39.5q-14 4 -17 12zM135 1343q0 43 31 73t74 30q39 0 68.5 -31t29.5 -72q0 -43 -27.5 -72.5 t-70.5 -29.5q-104 0 -105 102z" />
<glyph unicode="j" horiz-adv-x="550" d="M-96 -412q0 35 22.5 59.5t57.5 24.5q41 0 94 -55t80 -55q84 0 84 162q0 348 -9 897q-2 88 -15 107.5t-93 41.5q-6 2 -16 8q6 8 125.5 67.5t132.5 63.5l6 -2q4 -18 4 -55v-684q0 -293 -35 -422q-68 -254 -276 -254q-57 0 -103 21q-59 27 -59 75zM158 1348q0 43 31.5 71.5 t74.5 28.5q41 0 71 -29.5t30 -70.5t-31 -72t-72 -31q-43 0 -73.5 30t-30.5 73z" />
<glyph unicode="k" d="M45 1358q8 8 124 48t132 40l10 -4q4 -55 4 -78v-928l281 246q63 55 63 100q0 41 -52 50.5t-52 21.5q0 18 43 18h283q43 0 43 -20q0 -18 -43 -18t-113 -58q-49 -45 -100 -90l-144 -127l355 -407q31 -37 59 -76q39 -41 82 -41.5t43 -20.5q0 -18 -43 -18h-369q-43 0 -41 20 q0 14 56.5 19.5t56.5 38.5q0 31 -45 80l-272 299l-91 -80v-236q0 -100 78 -100q43 0 43 -21q0 -18 -43 -18h-299q-43 0 -43 20q0 18 41 19q80 0 80 108v1024q0 88 -14 115q-18 41 -95 64q-6 2 -18 10z" />
<glyph unicode="l" horiz-adv-x="495" d="M53 1358q8 8 124 48t132 40l10 -4q0 -14 -2 -29q6 -43 7 -49v-1231q0 -96 77 -96q43 -1 43 -21q0 -18 -43 -18h-299q-43 0 -43 20q0 18 41 19q80 0 80 108v1024q0 88 -14 115q-18 41 -94 64q-6 2 -19 10z" />
<glyph unicode="m" horiz-adv-x="1632" d="M57 780q8 8 128 67.5t130 61.5l7 -4q4 -12 4 -78v-129q119 182 309 183q199 0 244 -201q133 201 321 201q256 0 256 -316v-422q0 -106 78 -106q43 -1 43 -21q0 -18 -43 -18h-299q-43 0 -43 20q0 18 41 19q80 0 80 108v420q0 223 -193 223q-76 0 -152.5 -73.5 t-76.5 -149.5v-432q0 -96 78 -96q43 0 43 -21q0 -18 -43 -18h-299q-43 0 -43 20q0 18 41 19q80 0 80 108v420q0 223 -193 223q-66 0 -147.5 -67.5t-81.5 -130.5v-457q0 -96 77 -96q43 0 43 -21q0 -18 -43 -18h-299q-43 0 -43 20q0 18 43 19q78 0 78 108v490q0 78 -28 106 q-16 16 -53.5 20.5t-43.5 18.5z" />
<glyph unicode="n" d="M55 780q4 2 9.5 6.5t132.5 67.5q111 55 118 55l7 -4q4 -14 4 -78v-129q119 182 309 183q256 0 256 -316v-397q0 -70 8 -90q14 -41 72 -41q41 -1 41 -21q-2 -18 -43 -18h-301q-41 0 -39 20q0 18 41 19q55 0 69 41q8 18 9 90v397q0 223 -193 223q-66 0 -147.5 -67.5 t-81.5 -130.5v-422q0 -70 8 -90q14 -41 72 -41q41 0 38 -21q0 -18 -41 -18h-301q-41 0 -39 20q0 18 41 19q55 0 70 41q8 18 8 90v467q0 78 -16 95.5t-94 39.5q-6 2 -17 10z" />
<glyph unicode="o" horiz-adv-x="950" d="M43 432q0 190 123 319.5t311 129.5q190 0 310 -131.5t120 -321.5q0 -195 -118.5 -323t-311.5 -128q-197 0 -315.5 129.5t-118.5 325.5zM201 432q0 -156 59 -272q76 -145 217 -146q137 0 209 125q62 105 62 250q0 455 -267 455q-141 0 -217 -142q-63 -117 -63 -270z" />
<glyph unicode="p" d="M63 780q8 8 129 67.5t132 61.5l6 -4q4 -16 4 -141q115 121 295 121q172 0 282 -127q105 -121 105 -297q0 -225 -145.5 -354.5t-372.5 -129.5q-66 0 -164 37v-389q0 -96 78 -96q43 0 43 -21q0 -18 -43 -18h-299q-43 0 -43 21q0 18 41 18q80 0 79 109v983q0 86 -13 106.5 t-95 40.5q-14 4 -19 12zM334 219q0 -201 223 -201q145 0 225 111q70 96 70 248q0 172 -72 295q-85 149 -241 149h-2q-76 0 -136 -41q-68 -45 -67 -116v-445z" />
<glyph unicode="q" d="M43 424q0 211 127 343t338 132q43 0 125 -21.5t125 -21.5q31 0 59.5 32t38.5 32q8 -6 8 -117l-2 -1168q0 -106 78 -106q43 -1 43 -21q0 -18 -43 -18h-299q-43 0 -43 21q0 18 41 18q80 0 80 109v448q-125 -98 -285 -98q-180 0 -289 129q-102 123 -102 307zM195 463 q0 -162 63 -279q80 -145 229 -145q221 0 230 205q4 92 4 407q0 211 -229 211q-150 0 -230 -131q-68 -109 -67 -268z" />
<glyph unicode="r" horiz-adv-x="665" d="M57 778q119 57 265 127q4 -2 4 -78v-98q76 80 104 105q68 55 129 55q43 0 78 -25.5t35 -66.5q0 -37 -25.5 -62.5t-60.5 -25.5q-18 0 -53 24.5t-68 24.5q-74 0 -111 -72q-28 -53 -28 -132v-5v-412q0 -100 77 -100q43 0 43 -21q0 -18 -43 -18h-299q-43 0 -43 20q0 18 41 19 q80 0 80 108v488q0 78 -15 96.5t-93 38.5q-14 4 -17 10z" />
<glyph unicode="s" horiz-adv-x="722" d="M59 61v28q-1 53 5 107q8 68 18 68q12 0 16 -10q4 -29 19 -82q59 -172 235 -172q184 0 185 180q0 94 -119 158q-111 53 -223 106q-119 76 -119 199q0 109 88 176q78 61 190 62q115 0 230 -54q25 -12 28 -53q6 -78 6 -156q0 -27 -14 -28q-31 66 -61 131q-74 123 -203 123 q-63 0 -106.5 -42t-43.5 -108q0 -84 123 -143q113 -53 228 -107q123 -77 123 -206q0 -133 -99 -207q-88 -66 -225 -66q-86 0 -150 10q-80 12 -90 17q-41 18 -41 69z" />
<glyph unicode="t" horiz-adv-x="665" d="M45 805q0 63 72 63q59 0 104 50q29 33 58 94q25 49 30 49q21 -8 21 -102q0 -38 -4 -91h-1l78 2q33 2 59 2t44 -2q51 -4 51 -18q0 -16 -19.5 -41t-35.5 -25h-174v-524q0 -86 32 -143q41 -72 121 -72q37 0 89.5 23.5t47.5 23.5q13 0 13 -14q2 -25 -83 -67t-138 -42 q-98 0 -162 71t-64 169v575l-137 7q-2 4 -2 12z" />
<glyph unicode="u" d="M41 848q0 20 84 22l-28 -1q0 -1 132 -1q10 0 26.5 2t25.5 2q23 0 26 -75q0 9 -1 9t-1 -108v-405q0 -223 193 -223q66 0 159 67.5t93 130.5v430q0 70 -9 90q-14 41 -71 41q-41 0 -41 19q0 20 84 22l-28 -1q0 -1 132 -1q8 0 24.5 2t26.5 2q25 0 27 -75l-1 21q-1 0 -1 -120 v-530q0 -63 2 -74q10 -35 51 -39q23 0 45 -2q33 -4 33 -20q0 -8 -43 -21l-193 -53h-4q-13 1 -23 25q-11 28 -11 47v129q-53 -84 -143.5 -133.5t-188.5 -49.5q-256 0 -256 316v405q0 70 -8 90q-14 41 -72 41q-41 0 -41 19z" />
<glyph unicode="v" horiz-adv-x="1005" d="M18 854q0 18 43 18h349q43 0 41 -18q0 -14 -66 -21.5t-66 -56.5q0 -29 96.5 -300t114.5 -292q37 49 148 287q113 246 113 287q0 45 -39 63q-16 8 -70 15q-39 4 -39 18q0 18 43 18h283q43 0 43 -18q0 -20 -43 -20q-53 0 -90 -52q-10 -14 -50 -96l-340 -711l-22 -4 l-297 746q-27 68 -35 80q-27 37 -72 37t-45 20z" />
<glyph unicode="w" horiz-adv-x="1429" d="M-4 854q0 18 41 18h350q41 0 39 -18q0 -14 -64.5 -21.5t-64.5 -56.5q0 -31 12 -63q88 -250 140 -387q47 -125 59 -125q6 0 47 102q74 180 125 313l-43 101q-33 78 -35 80q-25 37 -69 37t-41 20q0 18 40 18h351q41 0 39 -18q0 -14 -64.5 -21.5t-64.5 -56.5q0 -31 12 -63 q88 -250 139 -387q47 -125 55 -125q4 0 31 53q14 33 29 65l141 363q16 43 17 74q0 47 -37 65q-18 6 -70 13q-35 6 -35 20q0 18 41 18h285q41 0 41 -18q-2 -20 -41 -20q-55 0 -92 -50q-18 -25 -49 -98l-299 -711l-23 -4l-231 578l-242 -574l-23 -4l-299 746q-29 72 -34 80 q-25 37 -74 37q-41 0 -39 20z" />
<glyph unicode="x" horiz-adv-x="950" d="M0 854q0 18 41 18h350q41 0 41 -20q0 -16 -59.5 -19.5t-59.5 -29.5q0 -29 92.5 -150t104.5 -121q16 0 89 105.5t73 136.5q0 47 -57.5 57.5t-57.5 22.5q0 18 41 18h285q41 0 39 -20q0 -18 -41 -18q-72 0 -185 -148l-153 -203l252 -331l57 -76q39 -41 82 -41.5t43 -20.5 q-2 -18 -43 -18h-350q-41 0 -41 20q0 16 58 20t58 30q0 27 -44 86t-85 114q-70 94 -79 94q-16 0 -98.5 -117.5t-82.5 -148.5q0 -47 57.5 -57t57.5 -23q0 -18 -41 -18h-285q-41 0 -39 20q0 18 39 19q76 0 187 147l168 224l-234 311q-55 72 -57 76q-39 41 -82 41t-41 20z" />
<glyph unicode="y" horiz-adv-x="1005" d="M18 854q0 18 43 18h349q43 0 43 -18q0 -14 -68 -22.5t-68 -55.5q0 -37 117 -289q111 -246 146 -292q14 6 109 266t95 293q0 47 -36 65q-18 10 -68 17q-37 4 -37 18q0 18 43 18h283q43 0 43 -18q0 -20 -43 -20q-57 0 -92 -50q-20 -27 -48 -98l-327 -881q-53 -145 -78 -188 q-63 -117 -137 -117q-33 0 -63.5 22.5t-30.5 59.5q0 66 63 74q59 4 119 8q33 12 78 127q41 104 41 152q0 43 -48 149l-278 625q-35 76 -35 78q-25 39 -70 39t-45 20z" />
<glyph unicode="z" horiz-adv-x="835" d="M25 668q0 27 35.5 114.5t54.5 87.5q78 1 177 1q199 0 486 -3l-551 -823q55 -4 131 -10q182 0 250 28q92 37 176 179q8 12 27 26q12 0 12 -20q0 -14 -8 -37q-74 -211 -94 -211h-688l553 829q-16 8 -61 8q-39 0 -99 -6q-150 0 -209 -20q-86 -31 -151 -137q-6 -12 -27 -27 q-8 0 -14 21z" />
<glyph unicode="{" horiz-adv-x="503" d="M37 535q88 25 123 88q29 51 28 149q0 70 -11 208t-11 206q0 119 45 192q53 90 164 90q74 0 71 -8l-49 -24q-45 -16 -71 -76q-25 -51 -25 -105q0 -74 9 -221t9 -223q0 -168 -163 -276q164 -113 163 -279q0 -74 -9 -221.5t-9 -220.5q0 -53 25 -105q29 -57 73 -74l50 -24 q0 -10 -74 -10q-111 0 -164 90q-45 74 -45 190q0 68 11 207t11 207q0 100 -28 151q-35 61 -123 89z" />
<glyph unicode="|" horiz-adv-x="692" d="M313 -279v1885h66v-1885h-66z" />
<glyph unicode="}" horiz-adv-x="503" d="M74 1458q0 10 73 10q111 0 164 -90q45 -74 45 -190q0 -68 -11 -206t-11 -208q0 -100 28 -151q35 -63 123 -88q-88 -27 -123 -89q-29 -51 -28 -149q0 -68 11 -207t11 -207q0 -119 -45 -192q-53 -90 -164 -90q-74 0 -71 8l49 24q45 16 72 76q25 51 24 105q0 74 -9 221 t-9 221q0 166 164 281q-164 109 -164 276q0 74 9 221.5t9 220.5q0 53 -26.5 107.5t-71.5 71.5q-49 25 -49 24z" />
<glyph unicode="~" horiz-adv-x="1200" d="M106 401q0 16 21 64q76 180 242 180q100 0 259.5 -74.5t221.5 -74.5q66 0 113 63q61 82 81 94q38 -10 50 -39q-96 -254 -250 -254q-104 0 -270 78t-228 78q-63 0 -100 -33q-25 -20 -49.5 -67t-40.5 -60q-8 4 -29 21.5t-21 23.5z" />
<glyph unicode="&#xa1;" horiz-adv-x="657" d="M141 887q0 45 32 77.5t77 32.5t77.5 -32.5t32.5 -77.5q0 -43 -31.5 -77t-74.5 -34q-45 0 -79 33t-34 78zM160 -311q0 231 41 696q18 217 45 217q37 0 63 -213q49 -403 49 -682v-12q0 -55 -24 -101q-29 -53 -80 -53q-47 0 -74 45q-20 39 -20 90v13z" />
<glyph unicode="&#xa2;" horiz-adv-x="944" d="M96 430q0 186 123 322.5t307 136.5q45 0 78 -8l123 397q4 14 16 14q8 0 26.5 -10t18.5 -16v-6l-122 -396q162 -53 161 -162q0 -74 -67 -73q-47 0 -78 59q-20 47 -41 96l-213 -686q61 -35 141 -35q68 0 136 41q45 27 90 74l39 41q10 -2 10 -4t2 -6q-31 -109 -130.5 -172.5 t-213.5 -63.5q-59 0 -109 15l-112 -365l-52 25l109 358q-119 53 -182 174q-59 111 -60 250zM244 473q0 -219 133 -338l213 699q-31 18 -82 18q-125 0 -201 -133q-63 -111 -63 -246z" />
<glyph unicode="&#xa3;" horiz-adv-x="1093" d="M43 137q0 82 53.5 127t136.5 45q92 0 207 -51q2 23 2 66q0 174 -75 317q-156 0 -236 -4q-23 27 -22 51q0 29 41 23q4 2 180 2q-74 143 -74 268q0 160 116.5 276.5t276.5 116.5q106 0 205 -63q113 -70 113 -170q0 -41 -26 -72t-67 -31q-33 0 -60.5 18.5t-27.5 49.5 q0 16 13.5 44t13.5 36q0 57 -55.5 102t-112.5 45q-227 0 -227 -282q0 -57 43 -168q35 -86 67 -170q184 8 277 8l-17 -82h-241q18 -74 18 -143q-2 -127 -55 -277q127 -51 205 -51q100 0 175 52t93 147q8 43 33 43q18 0 18 -27q0 -147 -76 -266q-86 -135 -223 -135 q-111 0 -289 131q-100 -141 -231 -142q-68 0 -120 49.5t-52 116.5zM100 129q0 -49 39 -80t90 -31q47 0 105 42t74 87q-20 39 -74.5 69t-100.5 30q-53 0 -93 -32t-40 -85z" />
<glyph unicode="&#xa6;" horiz-adv-x="489" d="M184 -33v602h121v-602h-121zM184 803v602h121v-602h-121z" />
<glyph unicode="&#xa7;" horiz-adv-x="1046" d="M219 580q0 100 80 171.5t180 71.5q16 0 49 -4q-307 219 -307 375q0 121 105 184q86 55 215 56q100 0 182 -41q102 -51 102 -142q0 -84 -80 -84q-68 0 -117.5 111t-113.5 111q-66 0 -115 -33q-57 -39 -57 -103q0 -90 147 -200q137 -100 277 -203q147 -134 147 -279 q0 -100 -79.5 -171.5t-180.5 -71.5q-16 0 -49 4q307 -219 307 -375q0 -121 -104 -184q-86 -55 -215 -56q-100 0 -182 41q-102 51 -103 142q0 84 80 84q68 0 118 -111t113 -111q66 0 115 33q57 39 58 103q0 90 -148 200q-137 100 -276 203q-147 133 -148 279zM336 629 q0 -76 186 -236q66 -20 123 -20q66 0 109 41.5t43 107.5q0 72 -187 236q-66 20 -123 20q-66 0 -108.5 -42t-42.5 -107z" />
<glyph unicode="&#xa8;" horiz-adv-x="772" d="M92 1081q0 39 29 70t67 31q43 0 74 -29t31 -72t-30 -73.5t-73 -30.5q-41 0 -69.5 31.5t-28.5 72.5zM496 1081q0 41 29.5 73t70.5 32q45 0 74.5 -30t29.5 -75t-29.5 -74.5t-74.5 -29.5q-41 0 -70.5 31.5t-29.5 72.5z" />
<glyph unicode="&#xa9;" horiz-adv-x="1587" d="M86 678q0 293 208 499.5t501 206.5t500.5 -206.5t207.5 -499.5t-208 -501t-500 -208q-293 0 -501 208t-208 501zM158 678q0 -264 186 -450.5t451 -186.5q262 0 449.5 187.5t187.5 449.5t-187.5 448.5t-449.5 186.5t-449.5 -186.5t-187.5 -448.5zM401 657q0 190 122 314.5 t313 126.5q35 0 101.5 -15.5t98.5 -15.5q39 0 47 31h39l15 -271l-41 -2q-27 96 -92 156q-72 61 -168 61q-135 0 -215 -135q-70 -115 -70 -260q0 -141 63 -229q74 -102 209 -103q170 0 281 125l43 -18q-135 -174 -338 -172q-182 0 -295 113.5t-113 293.5z" />
<glyph unicode="&#xaa;" horiz-adv-x="604" d="M49 1036q0 80 123 133q57 27 190 60q4 57 5 86q0 63 -84 65q-20 0 -53 -16t-48 -35q-6 -8 -6 -41q0 -39 -57 -39q-63 0 -64 45q0 59 121 101q94 33 170 32q135 0 135 -118q0 -156 4 -258q2 -43 23 -43q12 0 30.5 18t28.5 18q21 1 21 -28q-2 -37 -41 -59.5t-76 -22.5 q-78 0 -104 67q-80 -74 -179 -71q-51 0 -92 28q-47 31 -47 78zM164 1071q0 -59 67 -59q45 0 88 27.5t43 70.5v72q-92 -25 -116 -33q-82 -33 -82 -78z" />
<glyph unicode="&#xab;" horiz-adv-x="894" d="M113 477q6 18 175 175t177 157q16 0 16 -16q0 -29 -88 -162q-82 -123 -117 -158q20 -16 112.5 -156.5t92.5 -160.5t-18 -21l-33 17q-37 41 -113 118l-180 170q-18 18 -24 37zM422 475q4 14 18 33q29 25 86 76q139 125 207 194q25 31 41 31t17 -16q0 -25 -91 -162 q-86 -129 -114 -158q20 -16 112.5 -156.5t92.5 -160.5t-19 -21q-14 0 -33 19q-154 152 -317 321z" />
<glyph unicode="&#xad;" horiz-adv-x="657" d="M59 352q0 86 21 86h61l404 -2q53 0 53 -14v-82q0 -14 -76 -14h-397q-66 0 -66 26z" />
<glyph unicode="&#xae;" horiz-adv-x="1587" d="M86 672q0 293 207 500.5t500 207.5t500.5 -207.5t207.5 -500.5t-208 -500t-500 -207q-293 0 -500 207t-207 500zM158 672q0 -264 185 -450.5t450 -186.5q264 0 450.5 186.5t186.5 450.5t-186.5 450.5t-450.5 186.5t-449.5 -186.5t-185.5 -450.5zM422 279v32 q57 0 79.5 21.5t22.5 77.5v555q0 66 -14 83t-76 17v37h363q111 0 188 -53q90 -61 90 -168q0 -82 -57 -136.5t-144 -66.5l228 -305q43 -57 98 -60v-34h-190l-283 383h-65v-287q0 -61 108 -62v-34h-348zM659 707q281 27 281 170q0 156 -240 155q-27 0 -38 -2z" />
<glyph unicode="&#xaf;" horiz-adv-x="673" d="M18 1012v96h639v-96h-639z" />
<glyph unicode="&#xb0;" horiz-adv-x="657" d="M88 1214q0 102 72.5 174t173.5 72q98 0 169.5 -72.5t71.5 -170.5q0 -102 -69.5 -176t-171.5 -74t-174 72.5t-72 174.5zM156 1210q0 -74 52 -127t126 -53t124 54t50 130q0 72 -52.5 125.5t-123.5 53.5q-74 0 -125 -54.5t-51 -128.5z" />
<glyph unicode="&#xb2;" horiz-adv-x="780" d="M154 827q0 23 153.5 132.5t153.5 160.5q0 82 -84 82q-43 0 -96.5 -44t-59.5 -44q-31 0 -31 29q0 4 7 18q80 127 211 127q70 0 118 -35q55 -41 56 -104q0 -115 -197 -234l-25 -14h115q61 0 88 37l2 6q16 20 35 21q27 0 27 -27q0 -18 -40 -93t-50 -75q-12 0 -21 10l-4 6 q-10 12 -53 13h-250q-12 0 -33.5 9t-21.5 19z" />
<glyph unicode="&#xb3;" horiz-adv-x="788" d="M178 754q0 51 64 51q33 0 56.5 -36t63.5 -36q59 0 98.5 47t39.5 109q0 84 -191 180q156 127 156 197q0 41 -25.5 69.5t-66.5 28.5t-89 -44t-59 -44q-29 0 -28 29q0 10 6 22q82 127 209 127q68 0 117 -36t49 -101q0 -106 -99 -187q131 -84 131 -202q0 -117 -77.5 -186.5 t-200.5 -69.5q-47 0 -94 16q-59 25 -60 66z" />
<glyph unicode="&#xb4;" horiz-adv-x="612" d="M164 981q76 121 162 285q25 47 49 92q37 57 78 57q31 0 48 -25.5t17 -56.5q-2 -88 -317 -352h-37z" />
<glyph unicode="&#xb6;" horiz-adv-x="962" d="M49 1038q0 340 373 340q39 0 116.5 -3t114.5 -3t109 4t106 4v-22q-43 -25 -43 -121v-1262q0 -100 43 -120v-23l-141 6v1448h-70v-1448q-74 0 -151 -6v23q43 20 43 120v1311q-39 8 -88 8q-211 0 -211 -268q0 -133 63 -215q37 -47 117 -90q63 -35 64 -57q0 -37 -41 -37 q-29 0 -105 26q-299 104 -299 385z" />
<glyph unicode="&#xb7;" horiz-adv-x="514" d="M90 403q0 68 47 117t115 49q70 0 122 -48t52 -118t-49 -118.5t-119 -48.5t-119 49t-49 118z" />
<glyph unicode="&#xb8;" horiz-adv-x="722" d="M141 -362l25 40q102 -37 162 -36q37 0 63.5 23.5t26.5 60.5q0 82 -133 65l-11 12l91 183l81 4q-10 -6 -57 -111q78 2 131 -33q62 -36 62 -110q0 -80 -78 -123q-61 -33 -152 -33q-119 0 -211 58z" />
<glyph unicode="&#xb9;" horiz-adv-x="1730" d="M690 860v2q2 27 43 27t54.5 6t13.5 41v268q0 35 -13.5 41t-56.5 6t-41 31v2q2 27 43 27h264q43 0 43 -31l-2 -2q0 -27 -42 -27t-50 -4q-16 -8 -16 -43v-268q0 -35 16 -43q10 -4 52 -4t42 -31q-4 -29 -45 -29h-262q-45 0 -43 31z" />
<glyph unicode="&#xba;" horiz-adv-x="641" d="M27 1182q0 113 94 182q84 63 201 63t200 -63q92 -69 92 -184q0 -117 -90 -185q-82 -63 -202 -63q-123 0 -205 63q-90 68 -90 187zM154 1182q0 -82 41 -142q47 -66 127 -65q78 0 120.5 52t42.5 130q0 229 -161 229q-80 0 -125 -60t-45 -144z" />
<glyph unicode="&#xbb;" horiz-adv-x="894" d="M106 156q0 20 90.5 159.5t112.5 159.5q-31 31 -117 161t-86 157q0 16 17 16q10 0 43 -33q47 -47 143.5 -133t141.5 -131q14 -15 24 -35q-6 -12 -317 -323q-18 -18 -33 -19q-18 0 -19 21zM414 156q0 18 92 159.5t112 157.5q-33 33 -114 158q-90 133 -90 162q0 16 18 16 q8 0 175 -156t177 -176q-137 -141 -317 -323q-18 -18 -33 -19q-20 0 -20 21z" />
<glyph unicode="&#xbc;" horiz-adv-x="1730" d="M274 -88l1041 1544l63 -12l-1028 -1546zM274 860v2q2 27 43 27t54.5 6t13.5 41v268q0 35 -18 43q-8 4 -51.5 4t-41.5 31v2q2 27 43 27h263q45 0 43 -31v-2q-2 -27 -43 -27t-52 -4q-16 -8 -16 -43v-268q0 -35 18 -43q8 -4 51.5 -4t43.5 -31q-4 -29 -45 -29h-263 q-45 0 -43 31zM897 211q0 18 125 178q76 96 152 193q84 109 116 106q18 0 27 -14l-10 8q18 -25 18 -78q0 -61 2 -297q0 -31 -2 -31h131v-102q-18 0 -100 2q-31 0 -29 0q0 2 0 -31v-155h-123q2 78 2 192q0 -6 -18 -6h-29l-20 -2h-174q-68 0 -68 37zM1022 276h182v238 q-53 -68 -182 -238z" />
<glyph unicode="&#xbd;" horiz-adv-x="1730" d="M301 -88l1040 1544l64 -12l-1028 -1546zM301 860v2q2 27 43 27t54.5 6t13.5 41v268q0 35 -13.5 41t-56.5 6t-41 31v2q2 27 43 27h262q45 0 43 -31v-2q0 -27 -42 -27t-50 -4q-16 -8 -16 -43v-268q0 -35 16 -43q8 -4 51 -4t43 -31q-4 -29 -45 -29h-262q-45 0 -43 31z M956 29q0 23 154 132t154 161q0 82 -84 81q-43 0 -96.5 -44t-59.5 -44q-31 0 -31 29q0 4 6 18q80 127 211 127q70 0 119 -34q55 -41 55 -105q0 -115 -196 -233l-25 -15h115q61 0 86 37l4 6q16 20 33 21q29 0 29 -27q0 -18 -40 -93t-51 -75q-12 0 -20 11l-4 6q-10 12 -53 12 h-250q-12 0 -34 9t-22 20z" />
<glyph unicode="&#xbe;" horiz-adv-x="1730" d="M231 754q0 51 64 51q33 0 56.5 -36t64.5 -36q59 0 98 47t39 109q0 84 -191 180q156 127 156 197q0 41 -25.5 69.5t-66.5 28.5q-43 0 -91 -44t-56 -44q-29 0 -29 29q0 10 6 22q82 127 209 127q68 0 117 -36t49 -101q0 -106 -99 -187q131 -84 132 -202q0 -117 -78 -186.5 t-201 -69.5q-49 0 -94 16q-59 25 -60 66zM317 -88l1041 1544l63 -12l-1028 -1546zM940 211q0 18 125 178q76 96 152 193q82 109 116 106q18 0 25 -14l-10 8q20 -25 20 -78q0 -61 2 -297q0 -31 -2 -31h131v-102q-18 0 -102 2q-29 0 -27 0q0 2 0 -31v-155h-123v192 q0 -6 -16 -6h-29q-20 -2 -22 -2h-172q-68 0 -68 37zM1065 276h182v238q-55 -68 -182 -238z" />
<glyph unicode="&#xbf;" horiz-adv-x="829" d="M90 -55q0 287 217 309q45 4 90 13t45 61l4 254q0 18 29 12q20 0 21 -10l18 -453q-199 -18 -238 -29q-133 -43 -133 -170q0 -113 103 -165q23 -12 190 -62q103 -29 103 -84q0 -37 -28 -61.5t-65 -24.5q-135 0 -247 139q-109 131 -109 271zM340 883q0 45 33 78.5t78 33.5 t76.5 -33.5t31.5 -78.5t-31.5 -78t-76.5 -33q-111 0 -111 111z" />
<glyph unicode="&#xc0;" horiz-adv-x="1349" d="M-37 16q0 18 41 19q82 0 141 110q12 20 74 183l367 960l-11 29q70 43 148 110l412 -1099q57 -156 73 -183q59 -111 144 -110q41 -1 41 -21q-2 -18 -43 -18h-504q-31 0 -31 12q0 20 47 27q70 10 88 16q47 20 47 74q0 27 -14 65l-129 355h-500l-133 -355q-14 -39 -14 -65 q0 -53 47 -74q18 -6 88 -16q49 -6 49 -27q0 -12 -31 -12h-358q-41 0 -39 20zM287 1866q2 82 65 82q41 0 76 -58q25 -45 47 -92q74 -142 162 -285h-37q-315 262 -313 353zM379 616h448l-221 609z" />
<glyph unicode="&#xc1;" horiz-adv-x="1349" d="M-39 16q0 18 41 19q82 0 141 110q12 20 74 183l367 960l-11 29q70 43 148 110l412 -1099q57 -156 73 -183q59 -111 144 -110q41 -1 41 -21q-2 -18 -43 -18h-504q-31 0 -31 12q0 20 47 27q70 10 88 16q47 20 47 74q0 27 -14 65l-129 355h-500l-133 -355q-14 -39 -14 -65 q0 -53 47 -74q18 -6 88 -16q49 -6 49 -27q0 -12 -31 -12h-358q-41 0 -39 20zM377 616h448l-221 609zM610 1513q76 121 162 285q25 47 49 92q37 57 78 58q31 0 48.5 -25.5t17.5 -56.5q-2 -88 -318 -353h-37z" />
<glyph unicode="&#xc2;" horiz-adv-x="1349" d="M-37 16q0 18 41 19q82 0 141 110q12 20 74 183l367 960l-11 29q70 43 148 110l412 -1099q57 -156 73 -183q59 -111 144 -110q41 -1 41 -21q-2 -18 -43 -18h-504q-31 0 -31 12q0 20 47 27q70 10 88 16q47 20 47 74q0 27 -14 65l-129 355h-500l-133 -355q-14 -39 -14 -65 q0 -53 47 -74q18 -6 88 -16q49 -6 49 -27q0 -12 -31 -12h-358q-41 0 -39 20zM360 1509q0 20 117 191q96 143 137 194q10 14 25 15q16 0 27 -15q254 -358 254 -385q0 -16 -17 -16q-25 0 -131 109q-66 68 -131 135q-66 -68 -131 -135q-109 -109 -133 -109q-16 0 -17 16z M379 616h448l-221 609z" />
<glyph unicode="&#xc3;" horiz-adv-x="1349" d="M-37 16q0 18 41 19q82 0 141 110q12 20 74 183l367 960l-11 29q70 43 148 110l412 -1099q57 -156 73 -183q59 -111 144 -110q41 -1 41 -21q-2 -18 -43 -18h-504q-31 0 -31 12q0 20 47 27q70 10 88 16q47 20 47 74q0 27 -14 65l-129 355h-500l-133 -355q-14 -39 -14 -65 q0 -53 47 -74q18 -6 88 -16q49 -6 49 -27q0 -12 -31 -12h-358q-41 0 -39 20zM365 1520q0 70 60 139.5t128 69.5q45 0 144.5 -58.5t160.5 -58.5q51 0 86 65.5t41 65.5q23 0 23 -31q0 -70 -58.5 -139.5t-126.5 -69.5q-45 0 -145 58.5t-152 58.5q-66 0 -98.5 -65.5t-40.5 -65.5 q-23 0 -22 31zM379 616h448l-221 609z" />
<glyph unicode="&#xc4;" horiz-adv-x="1349" d="M-39 16q0 18 43 19q82 0 141 110q12 20 74 183l367 960l-11 29q78 49 148 110l410 -1099q57 -156 73 -183q59 -111 144 -110q43 -1 43 -21q0 -18 -43 -18h-506q-29 0 -29 14q0 20 47 27q70 8 88 16q47 18 47 72q0 27 -14 65l-129 355h-500l-133 -355q-14 -39 -14 -65 q0 -53 47 -72q16 -8 88 -18q47 -6 47 -27q0 -12 -29 -12h-356q-43 0 -43 20zM362 1622q0 39 29 69.5t68 30.5q43 0 73.5 -28.5t30.5 -71.5t-29.5 -73.5t-72.5 -30.5q-41 0 -70 31.5t-29 72.5zM381 616h448l-221 609zM766 1622q0 41 29.5 72.5t70.5 31.5q43 0 74 -30.5 t31 -73.5t-31 -73.5t-74 -30.5q-41 0 -70.5 31.5t-29.5 72.5z" />
<glyph unicode="&#xc5;" horiz-adv-x="1349" d="M-39 16q0 18 43 19q82 0 141 110q12 20 74 183l367 960l-11 29q78 49 148 110l410 -1099q57 -156 73 -183q59 -111 144 -110q43 -1 43 -21q0 -18 -43 -18h-506q-29 0 -29 14q0 20 47 27q70 8 88 16q47 18 47 72q0 27 -14 65l-129 355h-500l-133 -355q-14 -39 -14 -65 q0 -53 47 -72q16 -8 88 -18q47 -6 47 -27q0 -12 -29 -12h-356q-43 0 -43 20zM381 616h448l-221 609zM453 1655q0 84 58 142t140 58t139.5 -59t57.5 -141q0 -80 -59.5 -136.5t-139.5 -56.5t-138 56.5t-58 136.5zM516 1657q0 -51 41 -89t92 -38t91 37t40 88q0 55 -37.5 96 t-93.5 41q-53 0 -93 -41t-40 -94z" />
<glyph unicode="&#xc6;" horiz-adv-x="1873" d="M-37 12q0 23 47 23q82 0 160 110q12 20 100 183q143 262 289 524q246 453 246 481q0 43 -80 50.5t-80 23.5q0 18 39 18q45 0 135 -2t133 -2q115 0 342.5 2t339.5 2q33 0 43 -12q20 -16 45 -125q18 -86 25 -139q2 -8 2 -19q0 -31 -16 -30q-18 0 -35 35q-74 152 -133 196 q-70 55 -219 55q-180 0 -218 -2q-82 -4 -81 -118v-502q6 0 40.5 -8t67.5 -8q160 0 211 40.5t72 192.5q4 14 18 31q20 0 21 -92v-400q0 -92 -21 -92q-6 0 -20 29q-20 152 -71.5 192.5t-211.5 40.5h-31q-16 0 -40.5 -9t-34.5 -9q0 -94 -2.5 -284.5t-2.5 -287.5q0 -43 60 -53 q14 -2 92 -2h233q172 0 261 88q59 61 139 248q6 14 20 31q8 0 8 -25v-20q-2 -14 -2 -23l-28 -172q-25 -145 -40.5 -158.5t-55.5 -13.5l-1045 -2q-41 0 -39 20q0 18 41 19q88 0 124 23.5t36 107.5v377h-406l-190 -355q-25 -45 -25 -81q0 -57 83 -68.5t83 -30.5q0 -14 -31 -14 h-354q-41 0 -43 16zM479 616h367l2 682z" />
<glyph unicode="&#xc7;" horiz-adv-x="1404" d="M70 709q0 328 200.5 531.5t526.5 203.5q154 0 325 -70q35 -20 101 -49h10q12 0 53 38t45 38q10 0 12 -45q14 -248 15 -314q0 -45 -23 -47q-14 0 -24 23q-16 39 -58 115q-166 268 -430 268q-238 0 -397 -225q-143 -203 -143 -451q0 -266 133 -463q152 -225 405 -225 q274 0 434 248q18 37 58 110q8 23 24 23q21 0 21 -45q0 -66 -15 -314q-2 -45 -12 -45q-4 0 -46 38t-54 38h-10q-35 -18 -99 -49q-174 -70 -323 -68q-16 -31 -45 -92q78 2 131 -33q61 -39 61 -112q0 -84 -82 -125q-63 -31 -157 -31q-106 0 -201 58l24 40q102 -37 162 -36 q37 0 63.5 23.5t26.5 60.5q0 82 -133 65l-10 12l84 172q-285 29 -469 238t-184 496z" />
<glyph unicode="&#xc8;" horiz-adv-x="1404" d="M43 1407q0 18 41 18q45 0 135 -2t133 -2q125 0 372 2t370 2q35 0 47 -12q18 -18 43 -127q18 -86 24 -137q2 -8 2 -19q0 -31 -16 -30q-18 0 -35 33q-57 113 -98 159q-68 80 -158 92q-16 2 -115 2q-229 0 -260 -2q-82 -6 -82 -118v-502q10 0 35 -8t41 -8h94 q160 0 211.5 40.5t71.5 192.5q4 14 19 31q20 0 20 -92v-400q0 -92 -20 -92q-6 0 -21 29q-20 152 -71.5 192.5t-211.5 40.5h-92q-16 0 -40.5 -8t-35.5 -8v-506q0 -88 64 -111q33 -12 145 -12h234q172 0 260 88q59 61 139 248q6 14 21 31q8 0 8 -25v-20q-2 -14 -2 -23 q-14 -86 -29 -172q-25 -145 -40 -158.5t-56 -13.5l-1104 -2q-43 0 -41 20q0 18 41 19q88 0 124 23.5t36 107.5v1087q0 84 -41 111q-31 20 -121 20q-41 0 -41 21zM389 1866q2 82 66 82q41 0 75 -58q25 -45 48 -92q73 -142 161 -285h-37q-315 262 -313 353z" />
<glyph unicode="&#xc9;" horiz-adv-x="1404" d="M41 1407q0 18 41 18q45 0 135 -2t133 -2q125 0 372 2t370 2q35 0 47 -12q18 -18 43 -127q18 -86 24 -137q2 -8 2 -19q0 -31 -16 -30q-18 0 -35 33q-57 113 -98 159q-68 80 -158 92q-16 2 -115 2q-229 0 -260 -2q-82 -6 -82 -118v-502q10 0 35 -8t41 -8h94 q160 0 211.5 40.5t71.5 192.5q4 14 18 31q20 0 21 -92v-400q0 -92 -21 -92q-6 0 -20 29q-20 152 -71.5 192.5t-211.5 40.5h-92q-16 0 -40.5 -8t-35.5 -8v-506q0 -88 64 -111q33 -12 145 -12h234q172 0 260 88q59 61 139 248q6 14 21 31q8 0 8 -25v-20q-2 -14 -2 -23 q-14 -86 -29 -172q-25 -145 -40 -158.5t-56 -13.5l-1104 -2q-43 0 -41 20q0 18 41 19q88 0 124 23.5t36 107.5v1087q0 84 -41 111q-31 20 -121 20q-41 0 -41 21zM672 1513q76 121 162 285q25 47 49 92q37 57 78 58q31 0 48 -25.5t17 -56.5q-2 -88 -317 -353h-37z" />
<glyph unicode="&#xca;" horiz-adv-x="1404" d="M43 1407q0 18 41 18q45 0 135 -2t133 -2q125 0 372 2t370 2q35 0 47 -12q18 -18 43 -127q18 -86 24 -137q2 -8 2 -19q0 -31 -16 -30q-18 0 -35 33q-57 113 -98 159q-68 80 -158 92q-16 2 -115 2q-229 0 -260 -2q-82 -6 -82 -118v-502q10 0 35 -8t41 -8h94 q160 0 211.5 40.5t71.5 192.5q4 14 19 31q20 0 20 -92v-400q0 -92 -20 -92q-6 0 -21 29q-20 152 -71.5 192.5t-211.5 40.5h-92q-16 0 -40.5 -8t-35.5 -8v-506q0 -88 64 -111q33 -12 145 -12h234q172 0 260 88q59 61 139 248q6 14 21 31q8 0 8 -25v-20q-2 -14 -2 -23 q-14 -86 -29 -172q-25 -145 -40 -158.5t-56 -13.5l-1104 -2q-43 0 -41 20q0 18 41 19q88 0 124 23.5t36 107.5v1087q0 84 -41 111q-31 20 -121 20q-41 0 -41 21zM360 1509q0 20 117 191q96 143 137 194q10 14 25 15q16 0 27 -15q254 -358 254 -385q0 -16 -17 -16 q-25 0 -131 109q-66 68 -131 135q-66 -68 -131 -135q-109 -109 -133 -109q-16 0 -17 16z" />
<glyph unicode="&#xcb;" horiz-adv-x="1404" d="M43 1407q0 18 41 18q45 0 135 -2t133 -2q125 0 372 2t370 2q35 0 47 -12q18 -18 43 -127q18 -86 24 -137q2 -8 2 -19q0 -31 -16 -30q-18 0 -35 33q-57 113 -98 159q-68 80 -158 92q-16 2 -115 2q-229 0 -260 -2q-82 -6 -82 -118v-502q10 0 35 -8t41 -8h94 q160 0 211.5 40.5t71.5 192.5q4 14 19 31q20 0 20 -92v-400q0 -92 -20 -92q-6 0 -21 29q-20 152 -71.5 192.5t-211.5 40.5h-92q-16 0 -40.5 -8t-35.5 -8v-506q0 -88 64 -111q33 -12 145 -12h234q172 0 260 88q59 61 139 248q6 14 21 31q8 0 8 -25v-20q-2 -14 -2 -23 q-14 -86 -29 -172q-25 -145 -40 -158.5t-56 -13.5l-1104 -2q-43 0 -41 20q0 18 41 19q88 0 124 23.5t36 107.5v1087q0 84 -41 111q-31 20 -121 20q-41 0 -41 21zM362 1622q0 39 29 69.5t68 30.5q43 0 73.5 -28.5t30.5 -71.5t-29.5 -73.5t-72.5 -30.5q-41 0 -70 31.5 t-29 72.5zM766 1622q0 41 29.5 72.5t70.5 31.5q45 0 75 -29.5t30 -74.5t-30 -74.5t-75 -29.5q-41 0 -70.5 31.5t-29.5 72.5z" />
<glyph unicode="&#xcc;" horiz-adv-x="780" d="M88 18q0 18 41 19q88 0 124 23.5t36 107.5v1087q0 84 -41 111q-31 20 -121 20q-41 0 -39 21q0 18 41 18h522q41 0 39 -20q0 -18 -41 -19q-88 0 -119 -20q-41 -27 -41 -111v-1087q0 -84 41 -111q31 -20 121 -20q41 -1 41 -21q-2 -18 -43 -18h-522q-41 0 -39 20zM102 1866 q2 82 66 82q41 0 76 -58q25 -45 47 -92q74 -142 162 -285h-37q-315 262 -314 353z" />
<glyph unicode="&#xcd;" horiz-adv-x="780" d="M86 18q0 18 41 19q88 0 124 23.5t36 107.5v1087q0 84 -41 111q-31 20 -121 20q-41 0 -39 21q0 18 41 18h522q41 0 39 -20q0 -18 -41 -19q-88 0 -119 -20q-41 -27 -41 -111v-1087q0 -84 41 -111q31 -20 121 -20q41 -1 41 -21q-2 -18 -43 -18h-522q-41 0 -39 20zM385 1513 q76 121 162 285q25 47 49 92q37 57 78 58q31 0 48 -25.5t17 -56.5q-2 -88 -317 -353h-37z" />
<glyph unicode="&#xce;" horiz-adv-x="780" d="M88 18q0 18 41 19q88 0 124 23.5t36 107.5v1087q0 84 -41 111q-31 20 -121 20q-41 0 -39 21q0 18 41 18h522q41 0 39 -20q0 -18 -41 -19q-88 0 -119 -20q-41 -27 -41 -111v-1087q0 -84 41 -111q31 -20 121 -20q41 -1 41 -21q-2 -18 -43 -18h-522q-41 0 -39 20zM115 1509 q0 20 116 191q96 143 138 194q10 14 24 15q16 0 27 -15q254 -358 254 -385q0 -16 -17 -16q-25 0 -131 109q-66 68 -131 135q-66 -68 -131 -135q-109 -109 -133 -109q-16 0 -16 16z" />
<glyph unicode="&#xcf;" horiz-adv-x="780" d="M88 18q0 18 41 19q88 0 124 23.5t36 107.5v1087q0 84 -41 111q-31 20 -121 20q-41 0 -39 21q0 18 41 18h522q41 0 39 -20q0 -18 -41 -19q-88 0 -119 -20q-41 -27 -41 -111v-1087q0 -84 41 -111q31 -20 121 -20q41 -1 41 -21q-2 -18 -43 -18h-522q-41 0 -39 20zM96 1622 q0 39 29 69.5t68 30.5q43 0 73.5 -28.5t30.5 -71.5t-29.5 -73.5t-72.5 -30.5q-41 0 -70 31.5t-29 72.5zM500 1622q0 41 29.5 72.5t70.5 31.5q45 0 75 -29.5t30 -74.5t-30 -74.5t-75 -29.5q-41 0 -70.5 31.5t-29.5 72.5z" />
<glyph unicode="&#xd0;" horiz-adv-x="1632" d="M78 18q0 18 43 19q88 0 124 23.5t36 107.5v465h-74q-66 0 -66 26q0 86 21 86h119v510q0 84 -39 111q-33 20 -121 20q-43 0 -41 21q0 18 39 18h301q201 -2 301 -2q358 0 586 -178q248 -197 247 -545q0 -330 -208 -514q-193 -172 -529 -186q47 2 -426 2q-45 0 -135 -2 t-137 -2q-41 0 -41 20zM481 231q0 -197 189 -196q315 0 491 163.5t176 475.5q0 301 -184 504q-190 207 -487 206q-98 0 -134 -20q-51 -29 -51 -117v-504h146q53 0 53 -14v-82q0 -14 -76 -14h-123v-402z" />
<glyph unicode="&#xd1;" horiz-adv-x="1632" d="M31 1397q0 25 28 24h248q49 0 80 -24q8 -6 59 -66l879 -999v919q0 84 -41 111q-31 20 -121 20q-41 0 -39 21q0 18 41 18h367q41 0 41 -18q-2 -20 -43 -21q-88 0 -119 -20q-41 -27 -41 -111v-1220q0 -49 -8 -51q-6 6 -21 18q-70 80 -206 240l-566 641q-82 100 -254 290 q-20 20 -22 21q-6 0 -6 -33v-987q0 -84 41 -111q31 -20 121 -20q41 0 38 -21q0 -18 -41 -18h-366q-41 0 -39 20q0 18 41 19q88 0 124 23.5t36 107.5v946q0 135 -33 174q-53 66 -64 72q-23 14 -88 20q-27 2 -26 15zM508 1520q0 70 60.5 139.5t127.5 69.5q45 0 144.5 -58.5 t160.5 -58.5q51 0 86 65.5t41 65.5q23 0 23 -31q0 -70 -58.5 -139.5t-125.5 -69.5q-45 0 -145.5 58.5t-151.5 58.5q-66 0 -98.5 -65.5t-41.5 -65.5q-23 0 -22 31z" />
<glyph unicode="&#xd2;" horiz-adv-x="1462" d="M35 686q0 307 192 522q199 223 504 224q303 0 504 -215q195 -212 195 -519t-198 -517t-505 -210q-299 0 -495.5 207t-196.5 508zM244 709q0 -276 102 -461q127 -233 379 -234q244 0 381 226q115 188 115 448q0 262 -109 459q-133 244 -375 244q-252 0 -385 -226 q-109 -186 -108 -456zM430 1866q2 82 66 82q41 0 75 -58q25 -45 47 -92q74 -142 162 -285h-37q-315 262 -313 353z" />
<glyph unicode="&#xd3;" horiz-adv-x="1462" d="M33 686q0 307 192 522q199 223 504 224q303 0 504 -215q194 -212 194 -519t-197.5 -517t-504.5 -210q-299 0 -495.5 207t-196.5 508zM242 709q0 -276 102 -461q127 -233 379 -234q244 0 381 226q115 188 115 448q0 262 -109 459q-133 244 -375 244q-252 0 -385 -226 q-109 -186 -108 -456zM692 1513q76 121 162 285q25 47 49 92q37 57 78 58q31 0 48.5 -25.5t17.5 -56.5q-2 -88 -318 -353h-37z" />
<glyph unicode="&#xd4;" horiz-adv-x="1462" d="M35 686q0 307 192 522q199 223 504 224q303 0 504 -215q195 -212 195 -519t-198 -517t-505 -210q-299 0 -495.5 207t-196.5 508zM244 709q0 -276 102 -461q127 -233 379 -234q244 0 381 226q115 188 115 448q0 262 -109 459q-133 244 -375 244q-252 0 -385 -226 q-109 -186 -108 -456zM463 1509q0 20 117 191q96 143 137 194q10 14 24 15q16 0 27 -15q254 -358 254 -385q0 -16 -16 -16q-25 0 -132 109q-66 68 -131 135q-66 -68 -131 -135q-109 -109 -133 -109q-16 0 -16 16z" />
<glyph unicode="&#xd5;" horiz-adv-x="1462" d="M35 686q0 307 192 522q199 223 504 224q303 0 504 -215q195 -212 195 -519t-198 -517t-505 -210q-299 0 -495.5 207t-196.5 508zM244 709q0 -276 102 -461q127 -233 379 -234q244 0 381 226q115 188 115 448q0 262 -109 459q-133 244 -375 244q-252 0 -385 -226 q-109 -186 -108 -456zM446 1520q0 70 60.5 139.5t128.5 69.5q45 0 144.5 -58.5t160.5 -58.5q51 0 86 65.5t41 65.5q23 0 23 -31q0 -70 -58.5 -139.5t-126.5 -69.5q-45 0 -145.5 58.5t-151.5 58.5q-66 0 -98.5 -65.5t-40.5 -65.5q-23 0 -23 31z" />
<glyph unicode="&#xd6;" horiz-adv-x="1462" d="M35 686q0 307 192 522q199 223 504 224q303 0 504 -215q195 -212 195 -519t-198 -517t-505 -210q-299 0 -495.5 207t-196.5 508zM244 709q0 -276 102 -461q127 -233 379 -234q244 0 381 226q115 188 115 448q0 262 -109 459q-133 244 -375 244q-252 0 -385 -226 q-109 -186 -108 -456zM424 1622q0 39 28.5 69.5t67.5 30.5q43 0 74 -28.5t31 -71.5t-30 -73.5t-73 -30.5q-41 0 -69.5 31.5t-28.5 72.5zM827 1622q0 41 30 72.5t71 31.5q45 0 74.5 -29.5t29.5 -74.5t-29.5 -74.5t-74.5 -29.5q-41 0 -71 31.5t-30 72.5z" />
<glyph unicode="&#xd7;" horiz-adv-x="1024" d="M133 102l301 306l-301 301l76 79l303 -303l305 308l76 -78l-303 -307l303 -306l-76 -79l-305 307l-303 -307z" />
<glyph unicode="&#xd8;" horiz-adv-x="1462" d="M35 692q0 301 196.5 517t495.5 216q184 0 346 -92l217 369q4 8 25 12q45 0 35 -18l-224 -389q304 -228 304 -613q0 -311 -195 -514q-201 -209 -510 -209q-182 0 -350 95l-223 -392q-2 -2 -13 -2q-37 0 -45 21l232 401q-291 223 -291 598zM242 705q0 -305 139 -517 l647 1067q-129 129 -297 129q-248 0 -381 -225q-109 -188 -108 -454zM424 145q133 -137 299 -137q238 0 377 223q119 191 119 445q0 344 -152 536z" />
<glyph unicode="&#xd9;" horiz-adv-x="1519" d="M23 1407q0 18 40 18h523q41 0 41 -20q0 -18 -43 -19q-88 0 -119 -20q-41 -27 -41 -111v-874q0 -174 119 -270q111 -88 288 -88q422 0 422 446v786q0 84 -39 111q-33 20 -120 20q-43 0 -41 21q0 18 41 18h366q41 0 41 -18q0 -20 -43 -21q-88 0 -119 -20q-41 -27 -41 -111 v-782q0 -498 -520 -498q-557 0 -557 469l2 811q0 84 -39 111q-33 20 -121 20q-43 0 -40 21zM512 1866q2 82 66 82q41 0 75 -58q25 -45 47 -92q74 -142 162 -285h-37q-315 262 -313 353z" />
<glyph unicode="&#xda;" horiz-adv-x="1519" d="M20 1407q0 18 41 18h523q41 0 41 -20q0 -18 -43 -19q-88 0 -119 -20q-41 -27 -41 -111v-874q0 -174 119 -270q111 -88 288 -88q422 0 422 446v786q0 84 -39 111q-33 20 -120 20q-43 0 -41 21q0 18 41 18h366q41 0 41 -18q0 -20 -43 -21q-88 0 -119 -20q-41 -27 -41 -111 v-782q0 -498 -520 -498q-557 0 -557 469l2 811q0 84 -39 111q-33 20 -121 20q-43 0 -41 21zM774 1513q76 121 162 285q25 47 49 92q37 57 78 58q31 0 48 -25.5t17 -56.5q-2 -88 -317 -353h-37z" />
<glyph unicode="&#xdb;" horiz-adv-x="1519" d="M23 1407q0 18 40 18h523q41 0 41 -20q0 -18 -43 -19q-88 0 -119 -20q-41 -27 -41 -111v-874q0 -174 119 -270q111 -88 288 -88q422 0 422 446v786q0 84 -39 111q-33 20 -120 20q-43 0 -41 21q0 18 41 18h366q41 0 41 -18q0 -20 -43 -21q-88 0 -119 -20q-41 -27 -41 -111 v-782q0 -498 -520 -498q-557 0 -557 469l2 811q0 84 -39 111q-33 20 -121 20q-43 0 -40 21zM545 1509q0 20 117 191q96 143 137 194q10 14 24 15q16 0 27 -15q254 -358 254 -385q0 -16 -17 -16q-25 0 -131 109q-66 68 -131 135q-66 -68 -131 -135q-109 -109 -133 -109 q-16 0 -16 16z" />
<glyph unicode="&#xdc;" horiz-adv-x="1519" d="M23 1407q0 18 40 18h523q41 0 41 -20q0 -18 -43 -19q-88 0 -119 -20q-41 -27 -41 -111v-874q0 -174 119 -270q111 -88 288 -88q422 0 422 446v786q0 84 -39 111q-33 20 -120 20q-43 0 -41 21q0 18 41 18h366q41 0 41 -18q0 -20 -43 -21q-88 0 -119 -20q-41 -27 -41 -111 v-782q0 -498 -520 -498q-557 0 -557 469l2 811q0 84 -39 111q-33 20 -121 20q-43 0 -40 21zM526 1622q0 39 29 69.5t68 30.5q43 0 73.5 -28.5t30.5 -71.5t-29.5 -73.5t-72.5 -30.5q-41 0 -70 31.5t-29 72.5zM930 1622q0 41 29.5 72.5t70.5 31.5q45 0 75 -29.5t30 -74.5 t-30 -74.5t-75 -29.5q-41 0 -70.5 31.5t-29.5 72.5z" />
<glyph unicode="&#xdd;" horiz-adv-x="1347" d="M8 1407q0 18 43 18h565q29 0 29 -10q0 -16 -49 -29q-68 -16 -88 -28q-49 -27 -49 -80q0 -33 127 -246q80 -133 159 -266l246 465q18 35 21 59q0 51 -54 74q-23 8 -100 22q-53 8 -53 27q0 12 29 12h479q43 0 43 -18q0 -20 -43 -21q-119 0 -209 -94q-53 -57 -131 -198 l-203 -371v-555q0 -82 41 -111q31 -20 119 -20q43 0 43 -21q0 -18 -43 -18h-520q-43 0 -43 20q0 18 43 19q88 0 118 20q41 29 41 111v516l-252 410q-53 88 -106 178q-72 98 -160 114q-43 8 -43 21zM672 1513q76 121 162 285q25 47 49 92q37 57 78 58q31 0 48 -25.5t17 -56.5 q-2 -88 -317 -353h-37z" />
<glyph unicode="&#xde;" horiz-adv-x="1234" d="M37 18q0 18 41 19q88 0 124 23.5t36 107.5v1087q0 84 -41 111q-31 20 -121 20q-41 0 -39 21q0 18 41 18h522q41 0 39 -20q0 -18 -41 -19q-88 0 -119 -20q-41 -27 -41 -111v-137q29 0 78 -4q39 -4 129 -4q543 0 543 -395q0 -193 -166 -301q-141 -92 -344 -92q-31 0 -92 2 h-92q-46 0 -56 -25v-131q0 -84 41 -111q31 -20 121 -20q41 0 41 -21q-2 -18 -43 -18h-522q-41 0 -39 20zM438 395q6 -35 70 -35q459 0 459 367q0 344 -344 344q-106 0 -121 -2q-54 -13 -64 -72v-602z" />
<glyph unicode="&#xdf;" horiz-adv-x="1042" d="M74 18q0 18 45 19q53 0 67 41q8 18 9 90l6 868q2 156 111.5 260.5t265.5 104.5q127 0 225 -76q104 -84 104 -207q0 -109 -71 -178q-45 -43 -168 -104q156 -135 209 -207q92 -125 92 -275q0 -143 -78 -254q-88 -125 -225 -125q-80 0 -145.5 50.5t-65.5 128.5q0 29 21.5 51 t49.5 22q82 0 80 -94q0 -41 15 -76q20 -45 59 -45q86 0 133 105q35 78 35 174q0 236 -162 395q-98 98 -170 115l8 33q123 0 189 81q59 76 59 201q0 106 -55 179t-158 73q-113 0 -172 -96q-51 -82 -51 -203v-1071h-221q-41 0 -41 20z" />
<glyph unicode="&#xe0;" horiz-adv-x="892" d="M78 156q0 137 180 235q33 18 299 121q8 45 8 178q0 61 -42 101t-105 40q-41 0 -91.5 -32.5t-76.5 -69.5q-10 -14 -8 -76q2 -70 -80 -69q-78 0 -78 65q0 57 72 111q160 119 360 119q188 0 189 -209q0 -387 2 -486q2 -106 57 -106q23 0 50.5 34.5t41.5 34.5q8 1 10 -22 q0 -16 -6 -31q-49 -111 -158 -110q-59 0 -99 45t-48 106q-39 -63 -124 -112.5t-157 -49.5q-76 0 -136 53.5t-60 129.5zM115 1333q2 82 65 82q41 0 76 -57q25 -45 47 -92q74 -142 162 -285h-37q-315 262 -313 352zM219 223q0 -53 35 -96t86 -43q84 0 152.5 64.5t68.5 148.5 v174q-180 -70 -209 -84q-133 -72 -133 -164z" />
<glyph unicode="&#xe1;" horiz-adv-x="892" d="M76 156q0 137 180 235q33 18 299 121q8 45 8 178q0 61 -42 101t-105 40q-41 0 -91.5 -32.5t-76.5 -69.5q-10 -14 -8 -76q2 -70 -80 -69q-78 0 -78 65q0 57 72 111q160 119 360 119q188 0 188 -209q0 -387 3 -486q2 -106 57 -106q23 0 50.5 34.5t41.5 34.5q8 1 10 -22 q0 -16 -6 -31q-49 -111 -158 -110q-59 0 -99 45t-48 106q-39 -63 -124 -112.5t-157 -49.5q-76 0 -136 53.5t-60 129.5zM217 223q0 -53 35 -96t86 -43q84 0 152.5 64.5t68.5 148.5v174q-180 -70 -209 -84q-133 -72 -133 -164zM385 981q76 121 162 285q25 47 49 92 q37 57 78 57q31 0 48 -25.5t17 -56.5q-2 -88 -317 -352h-37z" />
<glyph unicode="&#xe2;" horiz-adv-x="892" d="M78 156q0 137 180 235q33 18 299 121q8 45 8 178q0 61 -42 101t-105 40q-41 0 -91.5 -32.5t-76.5 -69.5q-10 -14 -8 -76q2 -70 -80 -69q-78 0 -78 65q0 57 72 111q160 119 360 119q188 0 189 -209q0 -387 2 -486q2 -106 57 -106q23 0 50.5 34.5t41.5 34.5q8 1 10 -22 q0 -16 -6 -31q-49 -111 -158 -110q-59 0 -99 45t-48 106q-39 -63 -124 -112.5t-157 -49.5q-76 0 -136 53.5t-60 129.5zM143 1001q0 20 117 191q96 143 137 194q10 14 25 15q16 0 27 -15q253 -358 253 -385q0 -16 -16 -16q-25 0 -131 109q-66 68 -131 135q-66 -68 -131 -135 q-109 -109 -133 -109q-16 0 -17 16zM219 223q0 -53 35 -96t86 -43q84 0 152.5 64.5t68.5 148.5v174q-180 -70 -209 -84q-133 -72 -133 -164z" />
<glyph unicode="&#xe3;" horiz-adv-x="892" d="M78 156q0 137 180 235q33 18 299 121q8 45 8 178q0 61 -42 101t-105 40q-41 0 -91.5 -32.5t-76.5 -69.5q-10 -14 -8 -76q2 -70 -80 -69q-78 0 -78 65q0 57 72 111q160 119 360 119q188 0 189 -209q0 -387 2 -486q2 -106 57 -106q23 0 50.5 34.5t41.5 34.5q8 1 10 -22 q0 -16 -6 -31q-49 -111 -158 -110q-59 0 -99 45t-48 106q-39 -63 -124 -112.5t-157 -49.5q-76 0 -136 53.5t-60 129.5zM102 1010q0 70 60.5 139.5t128.5 69.5q45 0 144.5 -58.5t160.5 -58.5q51 0 86 65.5t41 65.5q22 0 22 -31q0 -70 -58 -139.5t-126 -69.5 q-45 0 -145.5 58.5t-151.5 58.5q-66 0 -98.5 -65.5t-40.5 -65.5q-23 0 -23 31zM219 223q0 -53 35 -96t86 -43q84 0 152.5 64.5t68.5 148.5v174q-180 -70 -209 -84q-133 -72 -133 -164z" />
<glyph unicode="&#xe4;" horiz-adv-x="892" d="M78 156q0 137 180 235q33 18 299 121q8 45 8 178q0 61 -42 101t-105 40q-41 0 -91.5 -32.5t-76.5 -69.5q-10 -14 -8 -76q2 -70 -80 -69q-78 0 -78 65q0 57 72 111q160 119 360 119q188 0 189 -209q0 -387 2 -486q2 -106 57 -106q23 0 50.5 34.5t41.5 34.5q8 1 10 -22 q0 -16 -6 -31q-49 -111 -158 -110q-59 0 -99 45t-48 106q-39 -63 -124 -112.5t-157 -49.5q-76 0 -136 53.5t-60 129.5zM129 1081q0 39 28.5 70t67.5 31q43 0 74 -29t31 -72t-30 -73.5t-73 -30.5q-41 0 -69.5 31.5t-28.5 72.5zM219 223q0 -53 35 -96t86 -43q84 0 152.5 64.5 t68.5 148.5v174q-180 -70 -209 -84q-133 -72 -133 -164zM532 1081q0 41 30 73t71 32q45 0 74.5 -30t29.5 -75t-29.5 -74.5t-74.5 -29.5q-41 0 -71 31.5t-30 72.5z" />
<glyph unicode="&#xe5;" horiz-adv-x="892" d="M78 156q0 137 180 235q33 18 299 121q8 45 8 178q0 61 -42 101t-105 40q-41 0 -91.5 -32.5t-76.5 -69.5q-10 -14 -8 -76q2 -70 -80 -69q-78 0 -78 65q0 57 72 111q160 119 360 119q188 0 189 -209q0 -387 2 -486q2 -106 57 -106q23 0 50.5 34.5t41.5 34.5q8 1 10 -22 q0 -16 -6 -31q-49 -111 -158 -110q-59 0 -99 45t-48 106q-39 -63 -124 -112.5t-157 -49.5q-76 0 -136 53.5t-60 129.5zM219 223q0 -53 35 -96t86 -43q84 0 152.5 64.5t68.5 148.5v174q-180 -70 -209 -84q-133 -72 -133 -164zM225 1200q0 84 58.5 142.5t140.5 58.5 t139.5 -59.5t57.5 -141.5q0 -80 -59.5 -136t-139.5 -56t-138.5 56t-58.5 136zM289 1202q0 -51 41 -89t92 -38t91 37t40 88q0 55 -38 96t-93 41t-94 -40t-39 -95z" />
<glyph unicode="&#xe6;" horiz-adv-x="1349" d="M47 156q0 137 180 235q43 23 299 119q8 45 9 180q0 61 -42 102.5t-106 41.5q-41 0 -94 -35q-45 -31 -74 -72q-10 -14 -8 -74q2 -70 -80 -69q-78 0 -78 65q0 57 72 111q160 119 360 119q145 0 174 -109q119 106 279 107q139 0 233 -66q104 -72 123 -205v-6q0 -20 -135 -39 l-500 -67v-31q-2 -20 -2 -31q0 -141 102.5 -246.5t244.5 -105.5q180 0 270 141q16 27 29 25q8 0 8 -6v-9q-20 -109 -142 -190q-113 -76 -227 -76q-115 0 -225 60q-123 68 -148 172q-53 -88 -147 -154q-104 -70 -201 -70q-82 0 -128 50.5t-46 132.5zM188 223q0 -53 35 -96 t86 -43q84 0 152.5 64.5t68.5 148.5v174q-180 -70 -208 -84q-133 -72 -134 -164zM670 547l368 74q76 14 76 32q0 84 -55 134.5t-141 50.5q-96 0 -166 -103q-53 -76 -82 -188z" />
<glyph unicode="&#xe7;" horiz-adv-x="835" d="M51 430q0 186 123 317.5t307 131.5q96 0 189 -45q113 -55 112 -142q0 -74 -65 -74q-49 0 -77 55.5t-52 110.5q-41 57 -125 58q-127 0 -201 -127q-63 -109 -63 -244q0 -160 80 -276q92 -131 245 -132q68 0 135 41q45 27 91 74q39 41 38 41q11 -2 11 -4v-6 q-31 -102 -123 -167t-203 -69q-18 -31 -47 -92q78 2 131 -33q61 -39 61 -112q0 -84 -81 -125q-63 -31 -158 -31q-106 0 -201 58l25 40q102 -37 162 -36q37 0 63.5 23.5t26.5 60.5q0 82 -133 65l-11 12l86 174q-164 23 -258 156q-88 125 -88 297z" />
<glyph unicode="&#xe8;" horiz-adv-x="894" d="M55 424q0 186 115 315q121 137 305 138q111 0 207 -56.5t139 -156.5q23 -53 23 -86q0 -16 -148 -17h-497q-4 -70 -4 -108q0 -152 98 -262.5t248 -110.5q96 0 170 43q47 29 90 80q35 43 39 43q8 0 8 -6q0 -2 -2 -9q-25 -109 -138.5 -187.5t-230.5 -78.5q-195 0 -311 133 q-111 127 -111 326zM135 1333q2 82 66 82q41 0 75 -57q25 -45 48 -92q73 -142 161 -285h-36q-315 262 -314 352zM211 612l367 23q73 4 73 20q0 84 -55 134.5t-141 50.5q-188 0 -244 -228z" />
<glyph unicode="&#xe9;" horiz-adv-x="894" d="M53 424q0 186 115 315q121 137 305 138q111 0 207 -56.5t139 -156.5q23 -53 23 -86q0 -16 -148 -17h-497q-4 -70 -4 -108q0 -152 98 -262.5t248 -110.5q96 0 170 43q47 29 90 80q35 43 39 43q8 0 8 -6q0 -2 -2 -9q-25 -109 -138.5 -187.5t-230.5 -78.5q-195 0 -311 133 q-111 127 -111 326zM209 612l366 23q74 4 74 20q0 84 -55 134.5t-141 50.5q-188 0 -244 -228zM426 981q76 121 162 285q25 47 49 92q37 57 78 57q31 0 48 -25.5t17 -56.5q-2 -88 -317 -352h-37z" />
<glyph unicode="&#xea;" horiz-adv-x="894" d="M55 424q0 186 115 315q121 137 305 138q111 0 207 -56.5t139 -156.5q23 -53 23 -86q0 -16 -148 -17h-497q-4 -70 -4 -108q0 -152 98 -262.5t248 -110.5q96 0 170 43q47 29 90 80q35 43 39 43q8 0 8 -6q0 -2 -2 -9q-25 -109 -138.5 -187.5t-230.5 -78.5q-195 0 -311 133 q-111 127 -111 326zM184 1001q0 20 117 191q96 143 137 194q10 14 25 15q16 0 26 -15q254 -358 254 -385q0 -16 -16 -16q-25 0 -131 109q-66 68 -131 135q-66 -68 -131 -135q-109 -109 -133 -109q-16 0 -17 16zM211 612l367 23q73 4 73 20q0 84 -55 134.5t-141 50.5 q-188 0 -244 -228z" />
<glyph unicode="&#xeb;" horiz-adv-x="894" d="M55 424q0 186 115 315q121 137 305 138q111 0 207 -56.5t139 -156.5q23 -53 23 -86q0 -16 -148 -17h-497q-4 -70 -4 -108q0 -152 98 -262.5t248 -110.5q96 0 170 43q47 29 90 80q35 43 39 43q8 0 8 -6q0 -2 -2 -9q-25 -109 -138.5 -187.5t-230.5 -78.5q-195 0 -311 133 q-111 127 -111 326zM150 1081q0 39 28.5 70t67.5 31q43 0 73.5 -29t30.5 -72t-29.5 -73.5t-72.5 -30.5q-41 0 -69.5 31.5t-28.5 72.5zM211 612l367 23q73 4 73 20q0 84 -55 134.5t-141 50.5q-188 0 -244 -228zM553 1081q0 41 29.5 73t70.5 32q45 0 75 -30t30 -75t-30 -74.5 t-75 -29.5q-41 0 -70.5 31.5t-29.5 72.5z" />
<glyph unicode="&#xec;" horiz-adv-x="495" d="M-90 1333q2 82 65 82q41 0 76 -57q25 -45 47 -92q74 -142 162 -285h-37q-315 262 -313 352zM61 780q4 2 9.5 6.5t132.5 67.5q111 55 119 55l6 -4q4 -14 4 -78v-659q0 -70 8 -90q14 -41 72 -41q41 -1 41 -21q-2 -18 -43 -18h-301q-41 0 -39 20q0 18 41 19q55 0 69 41 q8 18 8 90v465q0 80 -15 97.5t-95 39.5q-6 2 -17 10z" />
<glyph unicode="&#xed;" horiz-adv-x="495" d="M59 780q4 2 9.5 6.5t132.5 67.5q111 55 118 55l7 -4q4 -14 4 -78v-659q0 -70 8 -90q14 -41 72 -41q41 -1 41 -21q-2 -18 -43 -18h-302q-41 0 -38 20q0 18 41 19q55 0 69 41q8 18 8 90v465q0 80 -15 97.5t-95 39.5q-6 2 -17 10zM139 981q76 121 162 285q25 47 49 92 q37 57 78 57q31 0 48.5 -25.5t17.5 -56.5q-2 -88 -318 -352h-37z" />
<glyph unicode="&#xee;" horiz-adv-x="495" d="M-41 1001q0 20 117 191q96 143 137 194q10 14 25 15q16 0 26 -15q254 -358 254 -385q0 -16 -16 -16q-25 0 -131 109q-66 68 -131 135q-66 -68 -131 -135q-109 -109 -134 -109q-16 0 -16 16zM61 780q4 2 9.5 6.5t132.5 67.5q111 55 119 55l6 -4q4 -14 4 -78v-659 q0 -70 8 -90q14 -41 72 -41q41 -1 41 -21q-2 -18 -43 -18h-301q-41 0 -39 20q0 18 41 19q55 0 69 41q8 18 8 90v465q0 80 -15 97.5t-95 39.5q-6 2 -17 10z" />
<glyph unicode="&#xef;" horiz-adv-x="495" d="M-55 1081q0 39 28.5 70t67.5 31q43 0 73.5 -29t30.5 -72t-29.5 -73.5t-72.5 -30.5q-41 0 -69.5 31.5t-28.5 72.5zM61 780q4 2 9.5 6.5t132.5 67.5q111 55 119 55l6 -4q4 -14 4 -78v-659q0 -70 8 -90q14 -41 72 -41q41 -1 41 -21q-2 -18 -43 -18h-301q-41 0 -39 20 q0 18 41 19q55 0 69 41q8 18 8 90v465q0 80 -15 97.5t-95 39.5q-6 2 -17 10zM348 1081q0 41 30 73t71 32q45 0 74.5 -30t29.5 -75t-29.5 -74.5t-74.5 -29.5q-41 0 -71 31.5t-30 72.5z" />
<glyph unicode="&#xf0;" horiz-adv-x="950" d="M43 432q0 190 123 319.5t311 129.5q111 0 199 -47q-76 227 -275 403l-5 5t-5 3q-14 -18 -55 -74q-2 -6 -16.5 -17t-20.5 -7q-39 39 -37 41l25 31l49 65q-66 43 -176 131l10 4q6 0 18 -4q96 -35 183 -80q16 20 57 78q2 4 13.5 13.5t13.5 7.5l43 -29q2 -4 -9.5 -21.5 t-11.5 -19.5l-47 -64q221 -139 346 -350q131 -227 131 -499v-23q0 -190 -116 -317q-121 -133 -314 -134q-197 0 -315.5 129.5t-118.5 325.5zM201 432q0 -156 59 -272q76 -145 217 -146q137 0 209 125q62 105 62 250q0 455 -267 455q-141 0 -217 -142q-63 -117 -63 -270z" />
<glyph unicode="&#xf1;" d="M55 780q4 2 9.5 6.5t132.5 67.5q111 55 118 55l7 -4q4 -14 4 -78v-129q119 182 309 183q256 0 256 -316v-397q0 -70 8 -90q14 -41 72 -41q41 -1 41 -21q-2 -18 -43 -18h-301q-41 0 -39 20q0 18 41 19q55 0 69 41q8 18 9 90v397q0 223 -193 223q-66 0 -147.5 -67.5 t-81.5 -130.5v-422q0 -70 8 -90q14 -41 72 -41q41 0 38 -21q0 -18 -41 -18h-301q-41 0 -39 20q0 18 41 19q55 0 70 41q8 18 8 90v467q0 78 -16 95.5t-94 39.5q-6 2 -17 10zM225 1010q0 70 60.5 139.5t128.5 69.5q45 0 144 -58.5t161 -58.5q51 0 86 65.5t41 65.5q22 0 22 -31 q0 -70 -58 -139.5t-126 -69.5q-45 0 -145.5 58.5t-151.5 58.5q-66 0 -98.5 -65.5t-40.5 -65.5q-23 0 -23 31z" />
<glyph unicode="&#xf2;" horiz-adv-x="950" d="M43 432q0 190 123 319.5t311 129.5q190 0 310 -131.5t120 -321.5q0 -195 -118.5 -323t-311.5 -128q-197 0 -315.5 129.5t-118.5 325.5zM156 1333q2 82 65 82q41 0 76 -57q25 -45 47 -92q74 -142 162 -285h-37q-315 262 -313 352zM201 432q0 -156 59 -272 q76 -145 217 -146q137 0 209 125q62 105 62 250q0 455 -267 455q-141 0 -217 -142q-63 -117 -63 -270z" />
<glyph unicode="&#xf3;" horiz-adv-x="950" d="M41 432q0 190 123 319.5t311 129.5q190 0 310 -131.5t120 -321.5q0 -195 -118.5 -323t-311.5 -128q-197 0 -315.5 129.5t-118.5 325.5zM199 432q0 -156 59 -272q76 -145 217 -146q137 0 209 125q61 105 61 250q0 455 -266 455q-141 0 -217 -142q-63 -117 -63 -270z M426 981q76 121 162 285q25 47 49 92q37 57 78 57q31 0 48 -25.5t17 -56.5q-2 -88 -317 -352h-37z" />
<glyph unicode="&#xf4;" horiz-adv-x="950" d="M43 432q0 190 123 319.5t311 129.5q190 0 310 -131.5t120 -321.5q0 -195 -118.5 -323t-311.5 -128q-197 0 -315.5 129.5t-118.5 325.5zM184 1001q0 20 117 191q96 143 137 194q10 14 25 15q16 0 26 -15q254 -358 254 -385q0 -16 -16 -16q-25 0 -131 109q-66 68 -131 135 q-66 -68 -131 -135q-109 -109 -133 -109q-16 0 -17 16zM201 432q0 -156 59 -272q76 -145 217 -146q137 0 209 125q62 105 62 250q0 455 -267 455q-141 0 -217 -142q-63 -117 -63 -270z" />
<glyph unicode="&#xf5;" horiz-adv-x="950" d="M43 432q0 190 123 319.5t311 129.5q190 0 310 -131.5t120 -321.5q0 -195 -118.5 -323t-311.5 -128q-197 0 -315.5 129.5t-118.5 325.5zM184 1010q0 70 60.5 139.5t128.5 69.5q45 0 144 -58.5t161 -58.5q51 0 86 65.5t41 65.5q22 0 22 -31q0 -70 -58 -139.5t-126 -69.5 q-45 0 -145.5 58.5t-151.5 58.5q-66 0 -98.5 -65.5t-40.5 -65.5q-23 0 -23 31zM201 432q0 -156 59 -272q76 -145 217 -146q137 0 209 125q62 105 62 250q0 455 -267 455q-141 0 -217 -142q-63 -117 -63 -270z" />
<glyph unicode="&#xf6;" horiz-adv-x="950" d="M43 432q0 190 123 319.5t311 129.5q190 0 310 -131.5t120 -321.5q0 -195 -118.5 -323t-311.5 -128q-197 0 -315.5 129.5t-118.5 325.5zM170 1081q0 39 28.5 70t67.5 31q43 0 74 -29t31 -72t-30 -73.5t-73 -30.5q-41 0 -69.5 31.5t-28.5 72.5zM201 432q0 -156 59 -272 q76 -145 217 -146q137 0 209 125q62 105 62 250q0 455 -267 455q-141 0 -217 -142q-63 -117 -63 -270zM573 1081q0 41 30 73t71 32q45 0 74.5 -30t29.5 -75t-29.5 -74.5t-74.5 -29.5q-41 0 -71 31.5t-30 72.5z" />
<glyph unicode="&#xf8;" horiz-adv-x="950" d="M43 432q0 190 123 319.5t311 129.5q84 0 150 -29q49 115 98 227q82 182 96 183q10 0 23.5 -13.5t11.5 -21.5l-176 -393q111 -57 169 -167t58 -239q0 -195 -118.5 -323t-311.5 -128q-86 0 -168 29l-149 -332l-60 15l156 344q-213 121 -213 399zM201 432q0 -201 90 -321 l315 696q-51 37 -125 37q-141 0 -217 -142q-63 -117 -63 -270zM336 66q57 -51 141 -52q137 0 209 125q62 103 62 250q0 266 -97 379z" />
<glyph unicode="&#xf9;" d="M41 848q0 20 84 22q-88 -2 104 -2q10 0 26.5 2t25.5 2q23 0 26 -75q-2 41 -2 -99v-405q0 -223 193 -223q66 0 159 67.5t93 130.5v430q0 70 -9 90q-14 41 -71 41q-41 0 -41 19q0 20 84 22q-88 -2 104 -2q8 0 24.5 2t26.5 2q25 0 27 -75q-2 72 -2 -99v-530q0 -63 2 -74 q10 -35 51 -39q23 0 45 -2q33 -4 33 -20q0 -8 -43 -21l-193 -53q-16 -4 -27 24.5t-11 47.5v129q-53 -84 -143.5 -133.5t-188.5 -49.5q-256 0 -256 316v405q0 70 -8 90q-14 41 -72 41q-41 0 -41 19zM197 1333q2 82 65 82q41 0 76 -57q25 -45 47 -92q74 -142 162 -285h-37 q-315 262 -313 352z" />
<glyph unicode="&#xfa;" d="M39 848q0 20 84 22q-88 -2 104 -2q10 0 26.5 2t25.5 2q23 0 26 -75q-2 41 -2 -99v-405q0 -223 193 -223q66 0 159 67.5t93 130.5v430q0 70 -9 90q-14 41 -71 41q-41 0 -41 19q0 20 84 22q-88 -2 104 -2q8 0 24.5 2t26.5 2q25 0 27 -75q-2 72 -2 -99v-530q0 -63 2 -74 q10 -35 51 -39q23 0 45 -2q33 -4 33 -20q0 -8 -43 -21l-193 -53q-16 -4 -27 24.5t-11 47.5v129q-53 -84 -143.5 -133.5t-188.5 -49.5q-256 0 -256 316v405q0 70 -8 90q-14 41 -72 41q-41 0 -41 19zM467 981q76 121 162 285q25 47 49 92q37 57 78 57q31 0 48 -25.5t17 -56.5 q-2 -88 -317 -352h-37z" />
<glyph unicode="&#xfb;" d="M41 848q0 20 84 22q-88 -2 104 -2q10 0 26.5 2t25.5 2q23 0 26 -75q-2 41 -2 -99v-405q0 -223 193 -223q66 0 159 67.5t93 130.5v430q0 70 -9 90q-14 41 -71 41q-41 0 -41 19q0 20 84 22q-88 -2 104 -2q8 0 24.5 2t26.5 2q25 0 27 -75q-2 72 -2 -99v-530q0 -63 2 -74 q10 -35 51 -39q23 0 45 -2q33 -4 33 -20q0 -8 -43 -21l-193 -53q-16 -4 -27 24.5t-11 47.5v129q-53 -84 -143.5 -133.5t-188.5 -49.5q-256 0 -256 316v405q0 70 -8 90q-14 41 -72 41q-41 0 -41 19zM225 1001q0 20 117 191q96 143 137 194q10 14 25 15q16 0 26 -15 q254 -358 254 -385q0 -16 -16 -16q-25 0 -131 109q-66 68 -131 135q-66 -68 -131 -135q-109 -109 -133 -109q-16 0 -17 16z" />
<glyph unicode="&#xfc;" d="M41 848q0 20 84 22q-88 -2 104 -2q10 0 26.5 2t25.5 2q23 0 26 -75q-2 41 -2 -99v-405q0 -223 193 -223q66 0 159 67.5t93 130.5v430q0 70 -9 90q-14 41 -71 41q-41 0 -41 19q0 20 84 22q-88 -2 104 -2q8 0 24.5 2t26.5 2q25 0 27 -75q-2 72 -2 -99v-530q0 -63 2 -74 q10 -35 51 -39q23 0 45 -2q33 -4 33 -20q0 -8 -43 -21l-193 -53q-16 -4 -27 24.5t-11 47.5v129q-53 -84 -143.5 -133.5t-188.5 -49.5q-256 0 -256 316v405q0 70 -8 90q-14 41 -72 41q-41 0 -41 19zM190 1081q0 39 29 70t68 31q43 0 73.5 -29t30.5 -72t-29.5 -73.5 t-72.5 -30.5q-41 0 -70 31.5t-29 72.5zM594 1081q0 41 29.5 73t70.5 32q45 0 75 -30t30 -75t-30 -74.5t-75 -29.5q-41 0 -70.5 31.5t-29.5 72.5z" />
<glyph unicode="&#xfd;" horiz-adv-x="1005" d="M18 854q0 18 43 18h349q43 0 43 -18q0 -14 -68 -22.5t-68 -55.5q0 -37 117 -289q111 -246 146 -292q14 6 109 266t95 293q0 47 -36 65q-18 10 -68 17q-37 4 -37 18q0 18 43 18h283q43 0 43 -18q0 -20 -43 -20q-57 0 -92 -50q-20 -27 -48 -98l-327 -881q-53 -145 -78 -188 q-63 -117 -137 -117q-33 0 -63.5 22.5t-30.5 55.5q-2 70 63 78q59 4 119 8q33 12 78 127q41 104 41 152q0 43 -48 149l-278 625q-35 76 -35 78q-25 39 -70 39t-45 20zM471 981q76 121 162 285q25 47 49 92q37 57 78 57q31 0 48 -25.5t17 -56.5q-2 -88 -317 -352h-37z" />
<glyph unicode="&#xfe;" d="M63 1358q8 8 124 48t132 40l11 -4q0 -14 -2 -29q6 -43 6 -49v-600q115 121 295 121q172 0 282 -127q104 -121 105 -297q0 -225 -145.5 -354.5t-372.5 -129.5q-66 0 -164 37v-389q0 -96 78 -96q43 0 43 -21q0 -18 -43 -18h-299q-43 0 -43 21q0 18 41 18q80 0 79 109v1531 q0 88 -14 115q-18 41 -94 64q-6 2 -19 10zM334 219q0 -201 223 -201q145 0 225 111q70 96 70 248q0 172 -72 295q-86 150 -243 149q-76 0 -136 -41q-68 -45 -67 -116v-445z" />
<glyph unicode="&#xff;" horiz-adv-x="1005" d="M20 854q0 18 41 18h351q41 0 41 -18q0 -14 -68 -22.5t-68 -57.5q0 -23 17 -59q72 -168 227 -496q8 -12 17 -24q4 0 28 55q14 33 28.5 68.5t135.5 363.5q14 41 14 74q0 47 -36 65q-18 8 -68 15q-35 4 -35 18q0 18 41 18h285q41 0 41 -18q-2 -20 -41 -20q-57 0 -94 -48 q-20 -29 -48 -100l-325 -881q-51 -139 -78 -186q-63 -119 -139 -119q-33 0 -63.5 22.5t-30.5 53.5q0 53 30 70q20 12 75.5 12t76.5 8q33 12 78 123q41 104 41 154q0 43 -48 149l-278 625q-35 76 -37 80q-25 37 -69 37t-42 20zM211 1081q0 39 28.5 70t67.5 31q43 0 74 -29 t31 -72t-30 -73.5t-73 -30.5q-41 0 -69.5 31.5t-28.5 72.5zM614 1081q0 41 30 73t71 32q45 0 74.5 -30t29.5 -75t-29.5 -74.5t-74.5 -29.5q-41 0 -71 31.5t-30 72.5z" />
<glyph unicode="&#x152;" horiz-adv-x="2052" d="M25 686q0 307 192 522q199 223 502 224q29 0 84 -3.5t82 -3.5h927q43 0 56 -10q20 -16 47 -127q18 -86 24 -139q2 -8 3 -19q0 -31 -17 -30q-16 0 -35 35q-80 154 -133 196q-70 55 -221 55q-186 0 -209 -2q-82 -8 -82 -118v-502q12 0 36 -8t40 -8h90q150 0 182 47 q16 20 39 186q0 29 17 29q20 0 20 -90v-402q0 -90 -22 -90q-20 0 -15 29q-23 166 -37 188q-33 45 -182 45h-92q-16 0 -40 -8t-36 -8v-506q0 -88 64 -111q33 -12 145 -12h166q172 0 260 88q59 61 139 248q6 14 21 31q8 0 8 -25v-20q-2 -14 -2 -23q-14 -86 -29 -172 q-25 -143 -39 -157.5t-57 -14.5h-764q-74 0 -220 -14.5t-220 -14.5q-299 0 -495.5 207t-196.5 508zM233 709q0 -276 103 -461q127 -233 379 -234q115 0 209 41q120 56 120 156v979q0 94 -116 153q-96 47 -201 48q-252 0 -385 -226q-109 -186 -109 -456z" />
<glyph unicode="&#x153;" horiz-adv-x="1576" d="M43 432q0 190 123 319.5t313 129.5q225 0 355 -187q121 182 333 183q111 0 206 -56.5t140 -152.5q27 -59 27 -90q0 -16 -147 -17h-498q-4 -70 -4 -108q0 -152 98 -262.5t248 -110.5q180 0 270 141q16 27 29 25q8 0 8 -4.5t2 -10.5q-25 -111 -140.5 -188.5t-231.5 -77.5 q-231 0 -349 185q-123 -172 -348 -173q-197 0 -315.5 129.5t-118.5 325.5zM201 434q0 -156 59 -272q76 -145 217 -146q137 0 209 125q62 105 62 250q0 455 -267 455q-141 0 -217 -141q-63 -117 -63 -271zM907 612l367 23q74 4 74 20q0 84 -55.5 134.5t-141.5 50.5 q-188 0 -244 -228z" />
<glyph unicode="&#x178;" horiz-adv-x="1347" d="M8 1407q0 18 43 18h565q29 0 29 -12q0 -8 -10 -17.5t-19 -9.5q-55 0 -102 -26q-55 -31 -55 -82q0 -33 129 -250q78 -131 157 -262l246 465q18 35 21 59q0 51 -54 74q-23 8 -100 22q-53 8 -53 27q0 12 29 12h481q41 0 41 -18q-2 -20 -45 -21q-119 0 -207 -94 q-53 -55 -131 -198l-203 -371v-555q0 -84 41 -111q31 -20 121 -20q41 0 39 -21q0 -18 -41 -18h-522q-41 0 -39 20q0 18 41 19q88 0 123.5 23.5t35.5 107.5v516l-252 410q-53 88 -106 178q-76 100 -160 114q-43 6 -43 21zM444 1622q0 39 29 69.5t68 30.5q43 0 73.5 -28.5 t30.5 -71.5t-29.5 -73.5t-72.5 -30.5q-41 0 -70 31.5t-29 72.5zM848 1622q0 41 29.5 72.5t70.5 31.5q45 0 75 -29.5t30 -74.5t-30 -74.5t-75 -29.5q-41 0 -70.5 31.5t-29.5 72.5z" />
<glyph unicode="&#x2c6;" horiz-adv-x="692" d="M66 1001q0 20 116 191q96 143 137 194q10 14 25 15q16 0 27 -15q254 -358 254 -385q0 -16 -17 -16q-25 0 -131 109q-66 68 -131 135q-66 -68 -131 -135q-109 -109 -133 -109q-16 0 -16 16z" />
<glyph unicode="&#x2dc;" horiz-adv-x="772" d="M86 1010q0 70 60.5 139.5t127.5 69.5q45 0 144.5 -58.5t161.5 -58.5q51 0 85.5 65.5t41.5 65.5q22 0 22 -31q0 -70 -58.5 -139.5t-125.5 -69.5q-45 0 -145.5 58.5t-151.5 58.5q-66 0 -98.5 -65.5t-40.5 -65.5q-23 0 -23 31z" />
<glyph unicode="&#x2000;" horiz-adv-x="974" />
<glyph unicode="&#x2001;" horiz-adv-x="1948" />
<glyph unicode="&#x2002;" horiz-adv-x="974" />
<glyph unicode="&#x2003;" horiz-adv-x="1948" />
<glyph unicode="&#x2004;" horiz-adv-x="649" />
<glyph unicode="&#x2005;" horiz-adv-x="487" />
<glyph unicode="&#x2006;" horiz-adv-x="324" />
<glyph unicode="&#x2007;" horiz-adv-x="324" />
<glyph unicode="&#x2008;" horiz-adv-x="243" />
<glyph unicode="&#x2009;" horiz-adv-x="389" />
<glyph unicode="&#x200a;" horiz-adv-x="108" />
<glyph unicode="&#x2010;" horiz-adv-x="657" d="M59 352q0 86 21 86h61l404 -2q53 0 53 -14v-82q0 -14 -76 -14h-397q-66 0 -66 26z" />
<glyph unicode="&#x2011;" horiz-adv-x="657" d="M59 352q0 86 21 86h61l404 -2q53 0 53 -14v-82q0 -14 -76 -14h-397q-66 0 -66 26z" />
<glyph unicode="&#x2012;" horiz-adv-x="657" d="M59 352q0 86 21 86h61l404 -2q53 0 53 -14v-82q0 -14 -76 -14h-397q-66 0 -66 26z" />
<glyph unicode="&#x2013;" horiz-adv-x="1511" d="M113 422q0 72 18 72h1239q27 0 27 -15v-69l-4 -4q-25 -8 -60 -9l-1190 2q-31 0 -30 23z" />
<glyph unicode="&#x2014;" horiz-adv-x="2023" d="M72 424q0 74 20 74l1817 -2q43 0 43 -15v-71q0 -4 -15 -7q-12 -2 -16 0q-51 -6 -106 -6l-1704 -2q-8 0 -23.5 11.5t-15.5 17.5z" />
<glyph unicode="&#x2018;" horiz-adv-x="544" d="M137 1098q0 119 82 213q76 92 193 125l12 -31q-182 -72 -182 -223q0 -57 92 -105.5t92 -109.5q0 -96 -111 -97q-80 0 -131 76q-47 68 -47 152z" />
<glyph unicode="&#x2019;" horiz-adv-x="544" d="M111 1327q0 96 110 96q80 0 131 -75q47 -68 47 -152q0 -119 -78.5 -212t-195.5 -126l-12 31q182 72 182 223q0 57 -92 105.5t-92 109.5z" />
<glyph unicode="&#x201a;" horiz-adv-x="516" d="M111 111q0 96 110 96q80 0 131 -76q47 -67 47 -151q0 -119 -78.5 -212.5t-195.5 -125.5l-12 30q182 72 182 224q0 57 -92 105t-92 110z" />
<glyph unicode="&#x201c;" horiz-adv-x="1056" d="M137 1098q0 119 82 213q76 92 193 125l12 -31q-182 -72 -182 -223q0 -57 92 -105.5t92 -109.5q0 -96 -111 -97q-80 0 -131 76q-47 68 -47 152zM629 1098q0 119 82 213q76 92 192 125l12 -31q-182 -72 -182 -223q0 -57 92.5 -105.5t92.5 -109.5q0 -96 -111 -97 q-80 0 -131 76q-47 68 -47 152z" />
<glyph unicode="&#x201d;" horiz-adv-x="1056" d="M111 1327q0 96 110 96q80 0 131 -75q47 -68 47 -152q0 -119 -78.5 -212t-195.5 -126l-12 31q182 72 182 223q0 57 -92 105.5t-92 109.5zM602 1327q0 96 111 96q80 0 131 -75q47 -68 47 -152q0 -119 -79 -212t-196 -126l-12 31q182 72 182 223q0 57 -92 105.5t-92 109.5z " />
<glyph unicode="&#x201e;" horiz-adv-x="1056" d="M111 111q0 96 110 96q80 0 131 -76q47 -67 47 -151q0 -119 -78.5 -212.5t-195.5 -125.5l-12 30q182 72 182 224q0 57 -92 105t-92 110zM602 111q0 96 111 96q80 0 131 -76q47 -67 47 -151q0 -119 -79 -212.5t-196 -125.5l-12 30q182 72 182 224q0 57 -92 105t-92 110z " />
<glyph unicode="&#x2022;" horiz-adv-x="872" d="M158 674q0 113 78.5 194.5t191.5 81.5q119 0 204 -79.5t85 -198.5q0 -117 -81 -199t-198 -82t-198.5 83t-81.5 200z" />
<glyph unicode="&#x2026;" horiz-adv-x="1853" d="M186 88q0 47 35 84t82 37q49 0 82 -35t33 -84t-34 -82t-83 -33q-47 0 -81 33t-34 80zM811 88q0 47 35 84t82 37q49 0 82.5 -35t33.5 -84t-34.5 -82t-83.5 -33q-47 0 -81 33t-34 80zM1436 88q0 47 35.5 84t82.5 37q49 0 82 -35t33 -84t-35 -82t-84 -33q-47 0 -80.5 33 t-33.5 80z" />
<glyph unicode="&#x202f;" horiz-adv-x="389" />
<glyph unicode="&#x2039;" horiz-adv-x="595" d="M113 477q6 18 175 175t177 157q16 0 16 -16q0 -29 -88 -162q-82 -123 -117 -158q20 -16 112.5 -156.5t92.5 -160.5t-18 -21l-33 17q-37 41 -113 118l-180 170q-18 18 -24 37z" />
<glyph unicode="&#x203a;" horiz-adv-x="595" d="M117 156q0 20 92 160.5t113 156.5q-33 35 -117 158q-88 133 -88 162q0 16 16 16q8 0 177 -157t175 -175q-8 -18 -26 -37q-59 -55 -178 -170q-37 -39 -113 -116q-25 -18 -33 -19q-18 0 -18 21z" />
<glyph unicode="&#x205f;" horiz-adv-x="487" />
<glyph unicode="&#x20ac;" horiz-adv-x="835" d="M6 469l25 86h53q-2 41 -2 84q0 53 2 102h-76l23 86h63q33 244 145.5 385.5t272.5 141.5q96 0 188 -45q113 -55 113 -142q0 -74 -65 -73q-51 0 -78 55t-52 111q-43 57 -124 57q-229 0 -261 -490h439l-23 -86h-420v-61q0 -63 4 -125h367l-25 -86h-329q29 -182 104 -289 q82 -117 205 -117q68 0 135 41q47 27 90 74l39 41q8 -2 10 -4v-6q-35 -109 -130 -172.5t-212 -63.5q-160 0 -266 144q-98 131 -129 352h-86z" />
<glyph unicode="&#x2122;" horiz-adv-x="1914" d="M33 1167l14 199h688l15 -199l-33 -2q-6 102 -84 133q-41 14 -170 17v-608q0 -57 22.5 -76t81.5 -21v-37h-350v37q59 4 80.5 21.5t21.5 73.5v610q-129 -2 -167 -17q-74 -29 -84 -133zM815 1329v37h258l273 -580l262 580h254v-37q-59 0 -80 -14q-27 -20 -27 -78v-530 q0 -59 22.5 -77t84.5 -20v-37h-363v37q63 2 84 17q29 18 29 78v528l-291 -660h-35l-299 639l-2 -505q0 -68 27 -84q20 -12 90 -13v-37h-285v37q59 0 80 15q29 20 29 80v520q0 68 -20.5 86t-90.5 18z" />
<glyph unicode="&#x25fc;" horiz-adv-x="870" d="M0 0v870h870v-870h-870z" />
</font>
</defs>
</svg>
